<?xml version="1.0" encoding="utf-8"?>
<!-- Generator: Adobe Illustrator 23.0.1, SVG Export Plug-In . SVG Version: 6.00 Build 0)  -->
<svg version="1.1" id="Camada_1" xmlns="http://www.w3.org/2000/svg" xmlns:xlink="http://www.w3.org/1999/xlink" x="0px" y="0px"
	 viewBox="0 0 517 176" style="enable-background:new 0 0 517 176;" xml:space="preserve">
<style type="text/css">
	.st0{fill:#9B3E11;}
	.st1{fill:url(#SVGID_1_);}
	.st2{fill:url(#SVGID_2_);}
	.st3{fill:url(#SVGID_3_);}
	.st4{fill:url(#SVGID_4_);}
	.st5{fill:url(#SVGID_5_);}
	.st6{fill:url(#SVGID_6_);}
	.st7{fill:url(#SVGID_7_);}
	.st8{fill:url(#SVGID_8_);}
	.st9{fill:url(#SVGID_9_);}
	.st10{fill:url(#SVGID_10_);}
	.st11{fill:url(#SVGID_11_);}
	.st12{fill:url(#SVGID_12_);}
	.st13{fill:url(#SVGID_13_);}
	.st14{fill:url(#SVGID_14_);}
	.st15{fill:url(#SVGID_15_);}
	.st16{fill:url(#SVGID_16_);}
	.st17{fill:url(#SVGID_17_);}
	.st18{fill:url(#SVGID_18_);}
	.st19{fill:url(#SVGID_19_);}
	.st20{fill:#5E2B2F;}
	.st21{fill:#E42D1F;}
	.st22{fill:#FFD600;}
	.st23{fill:#FFFFFF;}
	.st24{opacity:0.5;}
	.st25{fill:#E53A12;}
	.st26{fill:#E84E1D;}
	.st27{fill:#C4191A;}
	.st28{fill:#F6A95C;}
	.st29{fill:#FAD9D6;}
	.st30{fill:#502F2E;}
	.st31{fill:url(#SVGID_20_);}
	.st32{fill:url(#SVGID_21_);}
	.st33{fill:url(#SVGID_22_);}
	.st34{fill:url(#SVGID_23_);}
	.st35{fill:url(#SVGID_24_);}
	.st36{fill:url(#SVGID_25_);}
	.st37{fill:url(#SVGID_26_);}
	.st38{fill:url(#SVGID_27_);}
	.st39{fill:url(#SVGID_28_);}
	.st40{fill:url(#SVGID_29_);}
	.st41{fill:url(#SVGID_30_);}
	.st42{fill:url(#SVGID_31_);}
	.st43{fill:url(#SVGID_32_);}
	.st44{fill:url(#SVGID_33_);}
	.st45{fill:url(#SVGID_34_);}
	.st46{fill:url(#SVGID_35_);}
	.st47{fill:url(#SVGID_36_);}
	.st48{fill:url(#SVGID_37_);}
	.st49{fill:url(#SVGID_38_);}
</style>
<g>
	<g>
		<g>
			<g>
				<path class="st0" d="M359.63,292.33c12.47,0.43,18.71,1.26,18.71,2.53c1.47,2.28,2.22,4.92,2.22,7.93v1.6
					c0,0.57-0.21,3.42-0.64,8.54v66.19c0.42,9.23,0.64,14.32,0.64,15.21v8.16c0.63,2.86,0.95,4.54,0.95,5.08
					c0,4.65-6.03,6.97-18.07,6.97h-16.49c-5.71,0-8.56-2.86-8.56-8.56c-0.16-0.68-0.37-3.96-0.64-9.82
					c0.21-0.75,0.32-1.67,0.32-2.78v-0.94c-0.64-6.61-0.95-13.38-0.95-20.3v-4.77c0-3.47,0.32-6.13,0.95-7.92
					c0-2.69,0.1-5.76,0.32-9.19c-0.21-8.4-0.32-15.78-0.32-22.11c-1.48-11.48-2.22-18.97-2.22-22.52c0.53-7.6,2.32-11.41,5.39-11.41
					C345.42,292.96,351.54,292.33,359.63,292.33z"/>
				<linearGradient id="SVGID_1_" gradientUnits="userSpaceOnUse" x1="379.7884" y1="289.8071" x2="364.9775" y2="303.3565">
					<stop  offset="0" style="stop-color:#FFD400"/>
					<stop  offset="0.1262" style="stop-color:#FAC801"/>
					<stop  offset="0.3533" style="stop-color:#EBA904"/>
					<stop  offset="0.5989" style="stop-color:#D88008"/>
					<stop  offset="0.6947" style="stop-color:#CF7609"/>
					<stop  offset="0.8579" style="stop-color:#B65B0D"/>
					<stop  offset="1" style="stop-color:#9B3E11"/>
				</linearGradient>
				<path class="st1" d="M356.77,277.15c12.46,0.42,21.57,16.45,21.57,17.72c1.47,2.28,2.22,4.92,2.22,7.93v1.6
					c0,0.57-0.21,3.42-0.64,8.54v10.47l-18.77-18.78L356.77,277.15z"/>
				<linearGradient id="SVGID_2_" gradientUnits="userSpaceOnUse" x1="342.9207" y1="412.2465" x2="358.6814" y2="393.9648">
					<stop  offset="0" style="stop-color:#FFD400"/>
					<stop  offset="0.1262" style="stop-color:#FAC801"/>
					<stop  offset="0.3533" style="stop-color:#EBA904"/>
					<stop  offset="0.5989" style="stop-color:#D88008"/>
					<stop  offset="0.6947" style="stop-color:#CF7609"/>
					<stop  offset="0.8579" style="stop-color:#B65B0D"/>
					<stop  offset="1" style="stop-color:#9B3E11"/>
				</linearGradient>
				<path class="st2" d="M361.79,386.46l18.77,16.04c0.63,2.86,0.95,4.54,0.95,5.08c0,4.65-6.03,6.97-18.07,6.97h-16.49
					c-10.65,0-24.07-15.18-24.07-20.88L361.79,386.46z"/>
				<linearGradient id="SVGID_3_" gradientUnits="userSpaceOnUse" x1="342.6391" y1="276.2843" x2="342.6391" y2="398.5068">
					<stop  offset="0" style="stop-color:#FFE500"/>
					<stop  offset="0.2749" style="stop-color:#FDE100"/>
					<stop  offset="0.5403" style="stop-color:#F7D600"/>
					<stop  offset="0.8011" style="stop-color:#EDC200"/>
					<stop  offset="1" style="stop-color:#E3AE00"/>
				</linearGradient>
				<path class="st3" d="M343.59,276.28c12.46,0.43,18.7,1.27,18.7,2.55c1.48,2.28,2.22,4.92,2.22,7.93v1.57
					c0,0.58-0.22,3.44-0.64,8.56v66.19c0.42,9.23,0.64,14.3,0.64,15.21v8.16c0.63,2.86,0.95,4.54,0.95,5.07
					c0,4.66-6.02,6.98-18.07,6.98h-16.49c-5.71,0-8.56-2.86-8.56-8.56c-0.16-0.68-0.37-3.96-0.63-9.82
					c0.21-0.75,0.32-1.67,0.32-2.78v-0.96c-0.64-6.59-0.95-13.36-0.95-20.28v-4.77c0-3.47,0.32-6.13,0.95-7.92
					c0-2.69,0.11-5.76,0.32-9.19c-0.21-8.4-0.32-15.78-0.32-22.11c-1.48-11.48-2.22-18.97-2.22-22.52
					c0.53-7.61,2.33-11.41,5.39-11.41C329.38,276.92,335.51,276.28,343.59,276.28z"/>
				<linearGradient id="SVGID_4_" gradientUnits="userSpaceOnUse" x1="343.5072" y1="276.2843" x2="343.5072" y2="398.4986">
					<stop  offset="0" style="stop-color:#FFFDF6"/>
					<stop  offset="0.0872" style="stop-color:#FFFBED"/>
					<stop  offset="0.2301" style="stop-color:#FFF6D4"/>
					<stop  offset="0.4111" style="stop-color:#FFEEAC"/>
					<stop  offset="0.6231" style="stop-color:#FFE374"/>
					<stop  offset="0.8583" style="stop-color:#FFD42E"/>
					<stop  offset="1" style="stop-color:#FFCB00"/>
				</linearGradient>
				<path class="st4" d="M364.52,378.29c0-0.91-0.22-5.98-0.64-15.21V296.9c0.42-5.12,0.64-7.98,0.64-8.56v-1.57
					c0-3.01-0.74-5.65-2.22-7.93c0-1.27-6.24-2.11-18.7-2.55c-8.09,0-14.21,0.64-18.39,1.91c-1.54,0-2.76,0.96-3.66,2.88
					c0.3-0.09,0.6-0.15,0.93-0.15c4.17-1.27,10.3-1.9,18.39-1.9c12.47,0.42,18.7,1.26,18.7,2.53c1.48,2.27,2.22,4.92,2.22,7.93v1.59
					c0,0.57-0.21,3.43-0.63,8.55v66.18c0.42,9.24,0.63,14.32,0.63,15.22v8.16c0.63,2.85,0.95,4.54,0.95,5.07
					c0,0.66-0.15,1.25-0.39,1.8c2.03-1.12,3.11-2.61,3.11-4.53c0-0.53-0.32-2.21-0.95-5.07V378.29z"/>
			</g>
			<g>
				<path class="st0" d="M74.13,292.27c13.02,0.62,19.52,2.43,19.52,5.42c0.41,1.04,0.73,3.05,0.93,6.05
					c-1.86,10.33-2.79,18.98-2.79,25.96c-0.52,0-0.93,3.41-1.24,10.22v21.4c0.62,4.08,1.03,8.59,1.24,13.55
					c1.24,2.9,2.38,6.13,3.41,9.69c1.71,0.77,2.94,1.16,3.72,1.16h1.24c4.34-0.98,6.51-2.16,6.51-3.56c1.45,0,2.89-3.82,4.34-11.47
					c-0.21-4.49-0.31-8.11-0.31-10.84v-8.76c0.47-16.89,0.98-25.34,1.55-25.34v-4.8c0-3.15-0.1-6.38-0.31-9.69
					c0.98-11.25,3.67-16.89,8.06-16.89c3.26-0.98,5.63-1.47,7.13-1.47c5.27-0.21,10.13-0.32,14.57-0.32c1.96,0,4.55,0.91,7.75,2.71
					c2.07,2.9,3.1,6.03,3.1,9.39v19.29c0.83,8.84,1.24,14.37,1.24,16.59v7.82c0,1.18-0.41,2.99-1.24,5.42v7.82
					c-1.24,6.94-2.48,12.77-3.72,17.53c-1.45,5.88-3,9.81-4.65,11.77c-4.24,9.26-7.33,13.88-9.3,13.88c0,1.09-3.21,2.89-9.61,5.42
					c-5.58,2.58-9.3,3.87-11.16,3.87h-4.34c-3,0.42-4.65,0.62-4.96,0.62h-4.03c-11.11,0-19.48-2.11-25.11-6.35
					c-8.57-4.24-15.29-12.06-20.15-23.48c-2.69-5.26-4.03-11.53-4.03-18.75c0.21-6.82,0.31-13.04,0.31-18.68v-8.76
					c0-2.94,0.1-6.35,0.31-10.22c-0.62-7.3-0.93-11.49-0.93-12.63c1.09-11.25,2.64-18,4.65-20.23c0.93-1.8,5.58-2.71,13.95-2.71
					C69.79,292.64,71.24,292.42,74.13,292.27z"/>
				<linearGradient id="SVGID_5_" gradientUnits="userSpaceOnUse" x1="91.3494" y1="293.7821" x2="79.1412" y2="309.0431">
					<stop  offset="0" style="stop-color:#FFD400"/>
					<stop  offset="0.1262" style="stop-color:#FAC801"/>
					<stop  offset="0.3533" style="stop-color:#EBA904"/>
					<stop  offset="0.5989" style="stop-color:#D88008"/>
					<stop  offset="0.6947" style="stop-color:#CF7609"/>
					<stop  offset="0.8579" style="stop-color:#B65B0D"/>
					<stop  offset="1" style="stop-color:#9B3E11"/>
				</linearGradient>
				<path class="st5" d="M74.16,278.78c13.06,6.67,19.5,15.92,19.5,18.92c0.41,1.04,0.73,3.05,0.93,6.05
					c-1.86,10.33-2.79,18.98-2.79,25.96l-18.21-17.89L74.16,278.78z"/>
				<linearGradient id="SVGID_6_" gradientUnits="userSpaceOnUse" x1="146.7779" y1="295.5408" x2="137.6248" y2="308.5094">
					<stop  offset="0" style="stop-color:#FFD400"/>
					<stop  offset="0.1262" style="stop-color:#FAC801"/>
					<stop  offset="0.3533" style="stop-color:#EBA904"/>
					<stop  offset="0.5989" style="stop-color:#D88008"/>
					<stop  offset="0.6947" style="stop-color:#CF7609"/>
					<stop  offset="0.8579" style="stop-color:#B65B0D"/>
					<stop  offset="1" style="stop-color:#9B3E11"/>
				</linearGradient>
				<path class="st6" d="M132.61,279.01c1.96,0,16.84,16.28,16.84,16.28c2.07,2.9,3.1,6.03,3.1,9.39v19.29l-21.86-17.85
					L132.61,279.01z"/>
				<linearGradient id="SVGID_7_" gradientUnits="userSpaceOnUse" x1="74.5942" y1="406.1335" x2="94.8093" y2="388.9704">
					<stop  offset="0" style="stop-color:#FFD400"/>
					<stop  offset="0.1262" style="stop-color:#FAC801"/>
					<stop  offset="0.3533" style="stop-color:#EBA904"/>
					<stop  offset="0.5989" style="stop-color:#D88008"/>
					<stop  offset="0.6947" style="stop-color:#CF7609"/>
					<stop  offset="0.8579" style="stop-color:#B65B0D"/>
					<stop  offset="1" style="stop-color:#9B3E11"/>
				</linearGradient>
				<path class="st7" d="M110.1,389.64l15.18,20.57c-5.58,2.58-9.3,3.87-11.16,3.87h-4.34c-3,0.42-4.65,0.62-4.96,0.62h-4.03
					c-11.11,0-19.48-2.11-25.11-6.35c0,0-20.8-13.26-28.31-26.22L110.1,389.64z"/>
				<linearGradient id="SVGID_8_" gradientUnits="userSpaceOnUse" x1="86.8104" y1="276.5938" x2="86.8104" y2="399.0228">
					<stop  offset="0" style="stop-color:#FFE500"/>
					<stop  offset="0.2749" style="stop-color:#FDE100"/>
					<stop  offset="0.5403" style="stop-color:#F7D600"/>
					<stop  offset="0.8011" style="stop-color:#EDC200"/>
					<stop  offset="1" style="stop-color:#E3AE00"/>
				</linearGradient>
				<path class="st8" d="M58.45,276.59c13.02,0.62,19.53,2.43,19.53,5.42c0.41,1.04,0.72,3.05,0.93,6.05
					c-1.86,10.33-2.79,18.97-2.79,25.96c-0.51,0-0.93,3.4-1.24,10.22v21.39c0.62,4.08,1.03,8.6,1.24,13.56
					c1.24,2.9,2.38,6.13,3.41,9.69c1.7,0.77,2.94,1.16,3.72,1.16h1.24c4.34-0.98,6.51-2.17,6.51-3.57c1.44,0,2.89-3.81,4.34-11.46
					c-0.21-4.49-0.31-8.11-0.31-10.85v-8.75c0.47-16.89,0.98-25.34,1.55-25.34v-4.8c0-3.15-0.1-6.38-0.31-9.69
					c0.98-11.26,3.67-16.89,8.06-16.89c3.26-0.98,5.63-1.47,7.13-1.47c5.27-0.21,10.13-0.32,14.57-0.32c1.96,0,4.54,0.9,7.75,2.71
					c2.07,2.9,3.1,6.02,3.1,9.39v19.29c0.82,8.84,1.24,14.36,1.24,16.59v7.82c0,1.18-0.41,2.99-1.24,5.42v7.82
					c-1.24,6.94-2.48,12.76-3.72,17.52c-1.44,5.89-2.99,9.82-4.65,11.78c-4.23,9.26-7.34,13.88-9.3,13.88c0,1.08-3.2,2.89-9.61,5.42
					c-5.58,2.58-9.3,3.87-11.16,3.87H94.1c-3,0.41-4.65,0.62-4.96,0.62h-4.03c-11.11,0-19.47-2.11-25.11-6.35
					c-8.57-4.24-15.29-12.06-20.15-23.48c-2.69-5.27-4.03-11.53-4.03-18.75c0.2-6.82,0.31-13.04,0.31-18.68V323
					c0-2.94,0.1-6.35,0.31-10.22c-0.62-7.3-0.93-11.51-0.93-12.63c1.08-11.27,2.63-18,4.65-20.23c0.93-1.81,5.58-2.71,13.95-2.71
					C54.11,276.95,55.56,276.74,58.45,276.59z"/>
				<linearGradient id="SVGID_9_" gradientUnits="userSpaceOnUse" x1="64.3821" y1="276.5938" x2="64.3821" y2="399.0127">
					<stop  offset="0" style="stop-color:#FFFDF6"/>
					<stop  offset="0.0872" style="stop-color:#FFFBED"/>
					<stop  offset="0.2301" style="stop-color:#FFF6D4"/>
					<stop  offset="0.4111" style="stop-color:#FFEEAC"/>
					<stop  offset="0.6231" style="stop-color:#FFE374"/>
					<stop  offset="0.8583" style="stop-color:#FFD42E"/>
					<stop  offset="1" style="stop-color:#FFCB00"/>
				</linearGradient>
				<path class="st9" d="M55.79,279.26c13.02,0.62,19.52,2.43,19.52,5.43c0.41,1.02,0.73,3.04,0.93,6.03
					c-1.86,10.35-2.79,18.98-2.79,25.96c-0.52,0-0.93,3.41-1.24,10.23v21.4c0.62,4.07,1.03,8.59,1.24,13.55
					c1.24,2.89,2.38,6.13,3.41,9.69c1.71,0.77,2.94,1.15,3.72,1.15h1.24c4.34-0.98,6.51-2.16,6.51-3.56c0.37,0,0.76-0.26,1.14-0.79
					c-1.08,0.62-2.72,1.19-4.98,1.7h-1.24c-0.77,0-2.02-0.39-3.72-1.16c-1.04-3.56-2.17-6.79-3.41-9.69
					c-0.2-4.96-0.62-9.48-1.24-13.56v-21.39c0.31-6.82,0.72-10.22,1.24-10.22c0-6.99,0.93-15.63,2.79-25.96
					c-0.21-3.01-0.51-5.01-0.93-6.05c0-2.99-6.51-4.8-19.53-5.42c-2.89,0.15-4.34,0.36-4.34,0.62c-8.37,0-13.02,0.9-13.95,2.71
					c-0.3,0.33-0.59,0.78-0.86,1.32c2.2-0.91,6.22-1.36,12.15-1.36C51.45,279.62,52.89,279.41,55.79,279.26z"/>
				<linearGradient id="SVGID_10_" gradientUnits="userSpaceOnUse" x1="118.8636" y1="276.593" x2="118.8636" y2="399.0253">
					<stop  offset="0" style="stop-color:#FFFDF6"/>
					<stop  offset="0.0872" style="stop-color:#FFFBED"/>
					<stop  offset="0.2301" style="stop-color:#FFF6D4"/>
					<stop  offset="0.4111" style="stop-color:#FFEEAC"/>
					<stop  offset="0.6231" style="stop-color:#FFE374"/>
					<stop  offset="0.8583" style="stop-color:#FFD42E"/>
					<stop  offset="1" style="stop-color:#FFCB00"/>
				</linearGradient>
				<path class="st10" d="M136.87,288.99c0-3.36-1.03-6.48-3.1-9.39c-3.2-1.81-5.78-2.71-7.75-2.71c-4.45,0-9.3,0.11-14.57,0.32
					c-1.5,0-3.87,0.48-7.13,1.47c-1.89,0-3.44,1.12-4.7,3.2c0.64-0.32,1.31-0.53,2.04-0.53c3.26-0.98,5.63-1.47,7.13-1.47
					c5.27-0.21,10.13-0.32,14.57-0.32c1.96,0,4.55,0.91,7.75,2.71c2.07,2.9,3.1,6.03,3.1,9.39v19.29
					c0.83,8.84,1.24,14.36,1.24,16.59v7.82c0,1.19-0.41,2.99-1.24,5.43v7.82c-1.24,6.92-2.48,12.76-3.72,17.51
					c-1.45,5.89-3,9.82-4.65,11.78c-2.33,5.09-4.31,8.73-5.95,11.02c1.97-0.9,4.84-5.44,8.62-13.69c1.66-1.96,3.21-5.88,4.65-11.78
					c1.24-4.76,2.48-10.58,3.72-17.52v-7.82c0.82-2.43,1.24-4.24,1.24-5.42v-7.82c0-2.23-0.41-7.75-1.24-16.59V288.99z"/>
			</g>
		</g>
		<g>
			<g>
				<path class="st0" d="M233.79,380.66c0.24,0.73,0.48,1.87,0.7,3.44l0.17,4.02c-0.34,1.91-0.51,2.99-0.49,3.26l0.55,12.69
					c0.16,3.63-3.84,6.12-11.99,7.47l-3.47,0.15c-12.82,0.55-20.74-0.05-23.77-1.82c-4.07-1.72-6.17-3.94-6.28-6.68l-0.18-4.1
					c-0.17-3.89-0.17-8.7,0.01-14.45c-0.45-0.71-0.69-1.5-0.73-2.34c-0.02-0.47,0.15-1.43,0.51-2.86
					c-0.43-5.04-0.68-8.42-0.75-10.15c1.3-8.85,1.87-15.42,1.68-19.73c0.21-0.01,0.29-0.51,0.25-1.51c-0.05-1.26-0.29-4.22-0.7-8.89
					c-0.05-1.16-0.03-3.18,0.05-6.08c-0.35-3.25-0.56-5.77-0.64-7.56c0.08-9.11,0.25-14.91,0.51-17.39
					c-0.33-2.88-0.54-5.29-0.62-7.24l-0.07-1.73c-0.25-5.73,2.02-9.3,6.8-10.72c-0.02-0.36,1.44-0.8,4.37-1.29
					c1.85,0.08,3,0.1,3.48,0.08c3.15-0.29,4.82-0.55,5.02-0.77c3.42,0.12,6.36,0.39,8.8,0.81l16.47-0.71
					c7.62-0.33,17.26,1.18,28.94,4.52c2.1,1.07,5.1,2.2,8.99,3.4c3.9,1.47,7.39,4.29,10.47,8.47c4.78,4.85,7.37,8.71,7.76,11.59
					c0.6,0.5,1.07,1.53,1.4,3.1l0.15,3.47c0.03,0.74-0.16,1.27-0.56,1.61l0.02,0.47c0.23,5.36-1.28,11.79-4.54,19.3
					c-2.67,6.32-6.64,10.89-11.89,13.7c4.79,9.58,9.02,16.19,12.7,19.82c0.04,0.94,3.28,2.91,9.73,5.89
					c2.84,2.36,4.31,4.63,4.4,6.84l0.2,4.57c0.3,7.04-1.49,11.85-5.38,14.45c-2.47,1.26-4.34,1.92-5.6,1.97l-7.57,0.33
					c-3.41,0.15-9.04-0.95-16.88-3.3c-8.2-3.33-15.31-11.92-21.32-25.77c-3.08-6.81-5.43-12.37-7.03-16.67l-5.04,0.22
					c0.22,0.36,0.34,0.65,0.35,0.85C232.99,371.22,233.34,376.31,233.79,380.66z M238.69,312.86c-1.49-0.31-3.29-0.57-5.4-0.79
					c-0.73,0.14-1.36,0.24-1.88,0.32l0.82,19.07c-0.34,1.91-0.51,3-0.49,3.26l0.33,7.64c0.79-0.14,1.73-0.23,2.83-0.28
					c0.46-0.28,0.9-0.51,1.31-0.69c0.97-0.62,2.07-1.43,3.29-2.43c4.82-5.47,7.13-10.49,6.94-15.06c0.21-0.01,0.3-0.3,0.27-0.88
					c-1.24-4.37-2.28-6.53-3.12-6.5C241.99,315.01,240.36,313.79,238.69,312.86z"/>
				
					<linearGradient id="SVGID_11_" gradientUnits="userSpaceOnUse" x1="270.1392" y1="311.6395" x2="256.4328" y2="321.4877" gradientTransform="matrix(0.9991 -0.043 0.043 0.9991 -1.0398 4.7432)">
					<stop  offset="0" style="stop-color:#FFD400"/>
					<stop  offset="0.1262" style="stop-color:#FAC801"/>
					<stop  offset="0.3533" style="stop-color:#EBA904"/>
					<stop  offset="0.5989" style="stop-color:#D88008"/>
					<stop  offset="0.6947" style="stop-color:#CF7609"/>
					<stop  offset="0.8579" style="stop-color:#B65B0D"/>
					<stop  offset="1" style="stop-color:#9B3E11"/>
				</linearGradient>
				<path class="st11" d="M259.18,281.63c10.08,4.34,22.53,18.14,22.53,18.14c4.78,4.85,7.51,11.89,7.9,14.77
					c0.6,0.5,1.07,1.53,1.4,3.1l0.15,3.47c0.03,0.74-0.16,1.27-0.56,1.61l0.02,0.47c0.23,5.36-1.28,11.79-4.54,19.3l-19.24-21.93
					L259.18,281.63z"/>
				
					<linearGradient id="SVGID_12_" gradientUnits="userSpaceOnUse" x1="280.1529" y1="390.4733" x2="269.5922" y2="397.7582" gradientTransform="matrix(0.9991 -0.043 0.043 0.9991 -1.0398 4.7432)">
					<stop  offset="0" style="stop-color:#FFD400"/>
					<stop  offset="0.1262" style="stop-color:#FAC801"/>
					<stop  offset="0.3533" style="stop-color:#EBA904"/>
					<stop  offset="0.5989" style="stop-color:#D88008"/>
					<stop  offset="0.6947" style="stop-color:#CF7609"/>
					<stop  offset="0.8579" style="stop-color:#B65B0D"/>
					<stop  offset="1" style="stop-color:#9B3E11"/>
				</linearGradient>
				<path class="st12" d="M281.72,368.25c1.48,1.35,8.24,5.75,14.82,11.78c2.72,2.5,4.39,6.5,4.48,8.7l0.2,4.57
					c0.3,7.04-1.49,11.85-5.38,14.45L279.4,387L281.72,368.25z"/>
				
					<linearGradient id="SVGID_13_" gradientUnits="userSpaceOnUse" x1="234.2421" y1="408.2831" x2="249.0258" y2="396.9418" gradientTransform="matrix(0.9991 -0.043 0.043 0.9991 -1.0398 4.7432)">
					<stop  offset="0" style="stop-color:#FFD400"/>
					<stop  offset="0.1262" style="stop-color:#FAC801"/>
					<stop  offset="0.3533" style="stop-color:#EBA904"/>
					<stop  offset="0.5989" style="stop-color:#D88008"/>
					<stop  offset="0.6947" style="stop-color:#CF7609"/>
					<stop  offset="0.8579" style="stop-color:#B65B0D"/>
					<stop  offset="1" style="stop-color:#9B3E11"/>
				</linearGradient>
				<path class="st13" d="M272.33,389.68l17.9,20.05l-7.57,0.33c-3.41,0.15-9.04-0.95-16.88-3.3c-8.2-3.33-26.35-16.35-32.37-30.2
					L272.33,389.68z"/>
				
					<linearGradient id="SVGID_14_" gradientUnits="userSpaceOnUse" x1="179.4001" y1="411.0951" x2="191.0894" y2="397.3466" gradientTransform="matrix(0.9991 -0.043 0.043 0.9991 -1.0398 4.7432)">
					<stop  offset="0" style="stop-color:#FFD400"/>
					<stop  offset="0.1262" style="stop-color:#FAC801"/>
					<stop  offset="0.3533" style="stop-color:#EBA904"/>
					<stop  offset="0.5989" style="stop-color:#D88008"/>
					<stop  offset="0.6947" style="stop-color:#CF7609"/>
					<stop  offset="0.8579" style="stop-color:#B65B0D"/>
					<stop  offset="1" style="stop-color:#9B3E11"/>
				</linearGradient>
				<path class="st14" d="M215.25,386.21l19.46,17.86c0.16,3.63-3.84,6.12-11.99,7.47l-3.47,0.15c-12.82,0.55-20.31-1.25-23.77-1.82
					c-9.06-1.5-18.6-14.11-22.64-20.43L215.25,386.21z"/>
				
					<linearGradient id="SVGID_15_" gradientUnits="userSpaceOnUse" x1="213.13" y1="274.4846" x2="213.13" y2="401.1597" gradientTransform="matrix(0.9991 -0.043 0.043 0.9991 -1.0398 4.7432)">
					<stop  offset="0" style="stop-color:#FFE500"/>
					<stop  offset="0.2749" style="stop-color:#FDE100"/>
					<stop  offset="0.5403" style="stop-color:#F7D600"/>
					<stop  offset="0.8011" style="stop-color:#EDC200"/>
					<stop  offset="1" style="stop-color:#E3AE00"/>
				</linearGradient>
				<path class="st15" d="M217.15,365.4c0.25,0.73,0.48,1.87,0.71,3.44l0.17,4.02c-0.34,1.91-0.51,2.99-0.49,3.26l0.55,12.69
					c0.16,3.63-3.84,6.11-11.99,7.46l-3.47,0.15c-12.82,0.55-20.74-0.05-23.77-1.82c-4.07-1.72-6.17-3.94-6.28-6.68l-0.18-4.1
					c-0.17-3.89-0.17-8.7,0.01-14.45c-0.45-0.71-0.69-1.5-0.73-2.34c-0.02-0.47,0.15-1.43,0.51-2.86
					c-0.43-5.04-0.68-8.42-0.76-10.15c1.31-8.85,1.87-15.42,1.68-19.73c0.21-0.01,0.29-0.51,0.25-1.51
					c-0.05-1.26-0.29-4.22-0.69-8.89c-0.05-1.16-0.03-3.18,0.05-6.08c-0.35-3.25-0.56-5.77-0.64-7.56
					c0.08-9.11,0.25-14.91,0.51-17.39c-0.33-2.88-0.54-5.29-0.62-7.24l-0.07-1.73c-0.25-5.73,2.02-9.3,6.8-10.72
					c-0.02-0.36,1.44-0.8,4.37-1.29c1.85,0.08,3,0.11,3.47,0.08c3.15-0.29,4.82-0.55,5.02-0.77c3.42,0.12,6.36,0.39,8.8,0.81
					l16.47-0.71c7.62-0.33,17.26,1.18,28.93,4.52c2.1,1.07,5.1,2.2,8.99,3.4c3.9,1.47,7.39,4.29,10.47,8.47
					c4.78,4.85,7.37,8.71,7.76,11.59c0.6,0.5,1.07,1.53,1.4,3.1l0.15,3.46c0.03,0.74-0.16,1.27-0.56,1.61l0.02,0.47
					c0.23,5.36-1.28,11.79-4.54,19.3c-2.67,6.32-6.64,10.89-11.89,13.7c4.79,9.58,9.01,16.19,12.7,19.82
					c0.04,0.95,3.28,2.91,9.73,5.89c2.84,2.36,4.31,4.63,4.4,6.84l0.2,4.57c0.3,7.04-1.49,11.85-5.38,14.45
					c-2.47,1.26-4.34,1.92-5.6,1.97l-7.57,0.33c-3.41,0.15-9.04-0.95-16.88-3.3c-8.2-3.33-15.31-11.92-21.33-25.77
					c-3.08-6.81-5.43-12.37-7.03-16.67l-5.04,0.22c0.22,0.36,0.34,0.65,0.35,0.85C216.35,355.95,216.71,361.04,217.15,365.4z
					 M222.05,297.6c-1.49-0.31-3.29-0.57-5.4-0.79c-0.73,0.14-1.36,0.24-1.88,0.31l0.82,19.07c-0.34,1.91-0.51,3-0.49,3.26
					l0.33,7.64c0.79-0.14,1.73-0.23,2.83-0.28c0.46-0.28,0.9-0.51,1.31-0.69c0.97-0.62,2.07-1.43,3.29-2.43
					c4.82-5.47,7.13-10.49,6.93-15.06c0.21-0.01,0.3-0.3,0.27-0.88c-1.24-4.37-2.28-6.53-3.12-6.5
					C225.35,299.75,223.72,298.53,222.05,297.6z"/>
				
					<linearGradient id="SVGID_16_" gradientUnits="userSpaceOnUse" x1="255.2326" y1="272.4106" x2="255.2326" y2="401.1933" gradientTransform="matrix(0.9991 -0.043 0.043 0.9991 -1.0398 4.7432)">
					<stop  offset="0" style="stop-color:#FFFDF6"/>
					<stop  offset="0.0872" style="stop-color:#FFFBED"/>
					<stop  offset="0.2301" style="stop-color:#FFF6D4"/>
					<stop  offset="0.4111" style="stop-color:#FFEEAC"/>
					<stop  offset="0.6231" style="stop-color:#FFE374"/>
					<stop  offset="0.8583" style="stop-color:#FFD42E"/>
					<stop  offset="1" style="stop-color:#FFCB00"/>
				</linearGradient>
				<path class="st16" d="M279.98,366.64c-6.45-2.99-9.69-4.95-9.73-5.89c-3.57-3.52-8.1-10.73-12.7-19.82l-2.59,2.83
					c4.78,9.58,9.01,16.19,12.7,19.82c0.04,0.95,3.28,2.91,9.73,5.89c2.84,2.35,4.31,4.63,4.4,6.84l0.2,4.57
					c0.21,4.83-0.65,8.53-2.41,11.27c3.6-2.65,5.3-7.32,5.01-14.1l-0.2-4.57C284.28,371.27,282.81,368.99,279.98,366.64z"/>
				
					<linearGradient id="SVGID_17_" gradientUnits="userSpaceOnUse" x1="212.3605" y1="274.4846" x2="212.3605" y2="401.158" gradientTransform="matrix(0.9991 -0.043 0.043 0.9991 -1.0398 4.7432)">
					<stop  offset="0" style="stop-color:#FFFDF6"/>
					<stop  offset="0.0872" style="stop-color:#FFFBED"/>
					<stop  offset="0.2301" style="stop-color:#FFF6D4"/>
					<stop  offset="0.4111" style="stop-color:#FFEEAC"/>
					<stop  offset="0.6231" style="stop-color:#FFE374"/>
					<stop  offset="0.8583" style="stop-color:#FFD42E"/>
					<stop  offset="1" style="stop-color:#FFCB00"/>
				</linearGradient>
				<path class="st17" d="M180.45,274.71c1.85,0.08,3,0.11,3.48,0.09c3.15-0.29,4.82-0.55,5.02-0.77c3.42,0.12,6.36,0.39,8.8,0.81
					l16.47-0.71c7.62-0.33,17.26,1.18,28.94,4.52c2.1,1.07,5.1,2.2,8.99,3.4c3.9,1.47,7.39,4.29,10.47,8.47
					c4.78,4.85,7.37,8.71,7.76,11.59c0.6,0.5,1.07,1.53,1.4,3.1l0.15,3.46c0.03,0.74-0.16,1.27-0.56,1.61l0.02,0.47
					c0.23,5.36-1.28,11.79-4.54,19.3c-1.14,2.7-2.57,5.01-4.18,7.07c2.77-2.61,5.06-5.85,6.77-9.9c3.26-7.51,4.77-13.95,4.54-19.3
					l-0.02-0.47c0.4-0.33,0.59-0.87,0.56-1.61l-0.15-3.46c-0.33-1.57-0.8-2.6-1.4-3.1c-0.39-2.88-2.98-6.74-7.76-11.59
					c-3.08-4.18-6.57-7-10.47-8.47c-3.89-1.2-6.89-2.33-8.99-3.4c-11.67-3.34-21.32-4.84-28.93-4.52l-16.47,0.71
					c-2.44-0.42-5.38-0.69-8.8-0.81c-0.2,0.22-1.87,0.48-5.02,0.77c-0.47,0.02-1.63-0.01-3.47-0.08c-2.93,0.5-4.38,0.93-4.37,1.29
					c-2.56,0.76-4.34,2.19-5.46,4.18c0.83-0.56,1.76-1.02,2.86-1.35C176.07,275.64,177.52,275.21,180.45,274.71z"/>
				
					<linearGradient id="SVGID_18_" gradientUnits="userSpaceOnUse" x1="201.1475" y1="268.9889" x2="201.1475" y2="401.32" gradientTransform="matrix(0.9991 -0.043 0.043 0.9991 -1.0398 4.7432)">
					<stop  offset="0" style="stop-color:#FFFDF6"/>
					<stop  offset="0.0872" style="stop-color:#FFFBED"/>
					<stop  offset="0.2301" style="stop-color:#FFF6D4"/>
					<stop  offset="0.4111" style="stop-color:#FFEEAC"/>
					<stop  offset="0.6231" style="stop-color:#FFE374"/>
					<stop  offset="0.8583" style="stop-color:#FFD42E"/>
					<stop  offset="1" style="stop-color:#FFCB00"/>
				</linearGradient>
				<path class="st18" d="M213.5,352.95c0.25,5.83,0.61,10.92,1.05,15.27c0.24,0.73,0.48,1.87,0.7,3.44l0.17,4.02
					c-0.34,1.91-0.51,2.99-0.5,3.26l0.55,12.69c0.03,0.63-0.12,1.22-0.35,1.79c2.04-1.25,3.02-2.79,2.94-4.62l-0.55-12.69
					c-0.01-0.27,0.15-1.35,0.49-3.26l-0.17-4.02c-0.23-1.57-0.46-2.71-0.71-3.44c-0.4-3.86-0.7-8.4-0.95-13.43l-0.1-1.84
					C216.32,350.48,213.5,352.75,213.5,352.95z"/>
				
					<linearGradient id="SVGID_19_" gradientUnits="userSpaceOnUse" x1="204.3591" y1="269.5903" x2="204.3591" y2="406.6713" gradientTransform="matrix(0.9991 -0.043 0.043 0.9991 -1.0398 4.7432)">
					<stop  offset="0" style="stop-color:#FFFDF6"/>
					<stop  offset="0.0872" style="stop-color:#FFFBED"/>
					<stop  offset="0.2301" style="stop-color:#FFF6D4"/>
					<stop  offset="0.4111" style="stop-color:#FFEEAC"/>
					<stop  offset="0.6231" style="stop-color:#FFE374"/>
					<stop  offset="0.8583" style="stop-color:#FFD42E"/>
					<stop  offset="1" style="stop-color:#FFCB00"/>
				</linearGradient>
				<path class="st19" d="M218.25,326.82c-1.1,0.05-2.04,0.14-2.83,0.28l-0.33-7.64c-0.01-0.26,0.15-1.35,0.49-3.26l-0.71-16.45
					c-0.29-0.03,0.19-2.59-0.11-2.62c0.3,0.03-2.59,2.83-2.59,2.83l0.82,19.07c-0.34,1.91-0.5,3-0.49,3.26l0.33,7.64
					c0.79-0.14,1.73-0.23,2.83-0.28c0.46-0.28,0.9-0.51,1.31-0.69c0.97-0.62,2.07-1.43,3.29-2.43c0.65-0.74,1.13-1.44,1.69-2.16
					c-0.83,0.65-1.68,1.32-2.38,1.76C219.15,326.31,218.72,326.54,218.25,326.82z"/>
			</g>
		</g>
	</g>
</g>
<g>
	<path class="st20" d="M-75.6,420.29c0.09,0,0.18-0.01,0.27-0.02c1-0.15,1.7-1.08,1.55-2.08c-2.15-14.6,1.43-21.26,1.47-21.33
		c0.49-0.88,0.18-2-0.7-2.49c-0.88-0.49-1.99-0.19-2.49,0.68c-0.18,0.3-4.27,7.66-1.91,23.67C-77.29,419.64-76.5,420.29-75.6,420.29
		z"/>
</g>
<g>
	<path class="st20" d="M-85.02,419.26c0.38,0,0.76-0.11,1.08-0.35l7.78-5.67l7.03,4.48c0.85,0.54,1.99,0.29,2.54-0.56
		c0.55-0.85,0.3-1.99-0.56-2.53l-8.09-5.15c-0.64-0.41-1.46-0.38-2.07,0.06l-8.8,6.41c-0.82,0.6-1,1.74-0.4,2.56
		C-86.14,419-85.58,419.26-85.02,419.26z"/>
</g>
<g>
	<path class="st20" d="M-43.87,420.29c0.18,0,0.36-0.03,0.55-0.08c0.97-0.3,1.51-1.33,1.21-2.29c-4.38-14.02-3.68-30.69-3.67-30.86
		c0.05-1.01-0.74-1.87-1.75-1.91c-1.02-0.02-1.87,0.74-1.92,1.75c-0.03,0.71-0.73,17.48,3.84,32.11
		C-45.38,419.79-44.65,420.29-43.87,420.29z"/>
</g>
<g>
	<path class="st20" d="M-52.29,419.26c0.57,0,1.14-0.27,1.5-0.77l5.59-7.81l8.83,5.12c0.88,0.51,2,0.21,2.51-0.66
		c0.51-0.87,0.21-2-0.67-2.5l-10.28-5.96c-0.82-0.47-1.87-0.25-2.42,0.52l-6.56,9.16c-0.59,0.82-0.4,1.97,0.43,2.56
		C-53.03,419.15-52.66,419.26-52.29,419.26z"/>
</g>
<g>
	<path class="st21" d="M-26.24,257.94c-2.72-0.41-5.38-0.15-7.84,0.64c-1.69-6.37-7.01-11.46-13.96-12.51
		c-7.68-1.17-14.41,0.53-17.54,7.22c-1.25-0.56-5.49-1.98-6.91-2.19c-8.53-1.29-16.27,3.84-17.56,12.34
		c-1.3,8.5,6.72,20.59,15.25,21.88c6.52,0.99,12.69-2.2,15.83-7.54c1.75,0.98,3.7,1.69,5.8,2.01c2.66,0.4,5.26,0.15,7.66-0.6
		c1.67,6.47,7.06,11.65,14.1,12.71c9.4,1.43,14.04-6.92,15.47-16.3C-14.52,266.22-16.84,259.36-26.24,257.94z"/>
</g>
<g>
	<path class="st22" d="M-131.42,336.81c2.76-22.32,9.41-63.22,66.64-60.72c57.23,2.5,78.64,17.6,78.28,59.42
		c-0.26,30.23,4.96,51.68-50.74,61.45c-55.7,9.77-81.74,2.07-89.96-9.06C-132.47,380.74-133.92,357.06-131.42,336.81z"/>
</g>
<g>
	<g>
		<path class="st23" d="M-85.69,401.32c0,0,3-24.8,33.08-28.58c30.08-3.78,27.72,21.62,27.72,21.62L-85.69,401.32z"/>
	</g>
</g>
<g class="st24">
	<path class="st25" d="M-133.37,346.13c0,0,2.33,42.24,25.77,43.94c23.44,1.7,96.61,2.45,113.04-21.03
		c6.78-9.69,7.92-27.06,7.92-27.06s9.91,39.24-21.68,48.19c-5.6,1.59-82.59,19.17-109.68,5.8
		C-139.68,385.26-133.37,346.13-133.37,346.13z"/>
</g>
<g>
	<path class="st20" d="M-84.25,402.72C-84.24,402.72-84.25,402.72-84.25,402.72c14.14,0,31.72-1.58,52.26-4.7
		c44.93-6.82,51-24.08,48.16-62.74c-2.94-40.05-27.03-61.22-69.66-61.22c-1.32,0-2.49,0.02-3.49,0.03
		c-0.72,0.01-1.36,0.02-1.88,0.02c-44.39,0-64.83,15.48-72.91,55.19c-5.01,24.62-4.8,43.14,0.63,55.03
		c4.58,10.04,11.7,12.74,14.74,13.89C-111.31,400.16-102.44,402.72-84.25,402.72z M-53.49,277.73c40.4,0,63.22,20,66,57.83
		c2.79,37.97-3.6,52.56-45.04,58.85c-20.36,3.09-37.75,4.65-51.7,4.65c0,0,0,0,0,0c-17.59,0-26.03-2.43-30.85-4.25
		c-2.84-1.08-8.75-3.32-12.71-11.98c-5.1-11.18-5.23-28.94-0.38-52.79c7.75-38.1,26.54-52.26,69.31-52.26
		c0.54,0,1.19-0.01,1.93-0.02C-55.95,277.74-54.79,277.73-53.49,277.73z"/>
</g>
<g class="st24">
	<path class="st25" d="M-67.46,334.59c0,0-9.26,36.34,9.24,36.6c11.29,0.16,31.37-20.25,31.37-20.25L-67.46,334.59z"/>
</g>
<g>
	<path class="st26" d="M-62.46,329.75c2.31-2.85,23.42,4.83,35.94,16.45c2.65,2.46-25.17,19.61-28.68,19.74
		C-63.27,366.22-73.63,343.58-62.46,329.75z"/>
</g>
<g>
	<path class="st27" d="M-66.05,353.19c0,0,10.56,3.17,34.73-2.69c3.21-0.78,2.21-3.04,2.21-3.04s-14.98,3.02-30.11,0.61
		c-1.99-0.32-7.85-0.85-7.85-0.85L-66.05,353.19z"/>
</g>
<g>
	<path class="st20" d="M-55.22,367.83L-55.22,367.83l0.22,0c3.75-0.13,28.54-15.05,30.44-20.12c0.39-1.05,0.18-2.1-0.57-2.79
		c-10.95-10.17-28.6-17.54-35.15-17.54c-1.64,0-2.77,0.42-3.47,1.28c-7.59,9.39-5.88,21.88-2.12,29.72
		C-63.03,364.3-59.05,367.83-55.22,367.83z M-28.34,346.97c-3.06,3.99-23.59,16.8-26.83,17.2l-0.05,0c-2.27,0-5.22-2.96-7.33-7.37
		c-3.54-7.38-4.42-18.15,1.54-25.69c0.11-0.03,0.33-0.07,0.73-0.07C-55.3,331.05-39.22,337.22-28.34,346.97z"/>
</g>
<g>
	<path class="st20" d="M-49.94,350.39c5.84,0,13.59-0.43,23.88-1.57c1.01-0.11,1.73-1.02,1.62-2.02c-0.11-1.01-1.02-1.73-2.03-1.62
		c-18.82,2.09-28.46,1.7-33.23,1c-3.07-0.45-4.76-1.17-4.76-1.18c-0.51-0.88-1.63-1.18-2.51-0.68c-0.88,0.5-1.18,1.62-0.68,2.5
		C-67.05,347.85-64.13,350.39-49.94,350.39z"/>
</g>
<g>
	<path class="st20" d="M-85.87,278.34c0.46,0,0.92-0.17,1.28-0.51c0.73-0.7,0.75-1.86,0.04-2.59c-3-3.09-4.34-7.29-3.69-11.53
		c0.55-3.6,2.47-6.77,5.41-8.92c2.94-2.16,6.55-3.04,10.16-2.5c7.45,1.13,12.59,8.09,11.45,15.52c-0.15,1,0.54,1.93,1.54,2.09
		c1,0.16,1.94-0.53,2.09-1.54c1.44-9.42-5.08-18.25-14.54-19.69c-4.58-0.69-9.16,0.43-12.89,3.17c-3.73,2.74-6.17,6.76-6.87,11.32
		c-0.82,5.38,0.89,10.71,4.69,14.63C-86.83,278.15-86.35,278.34-85.87,278.34z"/>
</g>
<g>
	<path class="st20" d="M-38.58,271.69c0.6,0,1.19-0.3,1.55-0.84c2.96-4.58,3.6-10.14,1.75-15.25c-3.25-8.96-13.2-13.63-22.2-10.39
		c-3.84,1.38-7.07,4.07-9.11,7.59c-0.51,0.88-0.21,2,0.67,2.5c0.88,0.51,2,0.21,2.51-0.67c1.61-2.77,4.16-4.89,7.18-5.98
		c7.09-2.55,14.94,1.12,17.5,8.19c1.46,4.03,0.96,8.42-1.38,12.02c-0.55,0.85-0.31,1.98,0.55,2.53
		C-39.26,271.6-38.92,271.69-38.58,271.69z"/>
</g>
<g>
	<path class="st20" d="M-17.63,283.29c0.6,0,1.19-0.29,1.55-0.84c2.96-4.57,3.6-10.13,1.75-15.25c-3.25-8.97-13.2-13.63-22.2-10.39
		c-0.95,0.34-1.45,1.39-1.1,2.34c0.34,0.95,1.4,1.45,2.35,1.1c7.08-2.55,14.93,1.12,17.49,8.19c1.46,4.04,0.96,8.42-1.38,12.02
		c-0.55,0.85-0.31,1.98,0.55,2.53C-18.32,283.19-17.97,283.29-17.63,283.29z"/>
</g>
<g>
	<path class="st20" d="M-11.05,295.76c0.47,0,0.93-0.18,1.29-0.53c0.72-0.71,0.73-1.87,0.02-2.59c-6.87-6.96-16.02-5.74-16.4-5.69
		c-1,0.14-1.7,1.07-1.56,2.07c0.14,1,1.07,1.7,2.07,1.55l0,0c0.08-0.01,7.73-0.98,13.27,4.63C-12,295.58-11.53,295.76-11.05,295.76z
		"/>
</g>
<g>
	<path class="st20" d="M-103.77,295.05c0.47,0,0.95-0.18,1.31-0.55c5.54-5.61,13.19-4.64,13.27-4.62c1,0.14,1.93-0.56,2.07-1.56
		c0.14-1-0.55-1.92-1.55-2.07c-0.39-0.06-9.54-1.28-16.41,5.68c-0.71,0.72-0.7,1.88,0.02,2.59
		C-104.7,294.87-104.23,295.05-103.77,295.05z"/>
</g>
<g>
	<path class="st28" d="M-34.17,344.74c0,0-11.97-9.43-23.74-11.71c-2.73-0.53-2.39,3.69-2.39,3.69S-48.95,338.09-34.17,344.74z"/>
</g>
<g>
	<path class="st25" d="M-104.27,351.97c-0.27,1.77-1.93,2.99-3.7,2.72c-1.77-0.27-2.99-1.92-2.72-3.69c0.27-1.77,1.93-2.99,3.7-2.72
		C-105.22,348.55-104,350.2-104.27,351.97z"/>
</g>
<g>
	<path class="st25" d="M-93.6,347.91c-0.15,0.95-1.04,1.61-2,1.46c-0.96-0.15-1.61-1.04-1.47-1.99c0.14-0.95,1.04-1.61,2-1.46
		C-94.11,346.07-93.45,346.96-93.6,347.91z"/>
</g>
<g>
	<path class="st25" d="M-112.26,346.5c-0.09,0.56-0.61,0.95-1.18,0.86c-0.56-0.09-0.95-0.61-0.87-1.17
		c0.09-0.56,0.61-0.95,1.18-0.86C-112.56,345.42-112.17,345.94-112.26,346.5z"/>
</g>
<g>
	<path class="st25" d="M-98.92,359.55c-0.14,0.92-1,1.56-1.93,1.42c-0.92-0.14-1.56-1-1.42-1.92c0.14-0.92,1-1.56,1.93-1.41
		C-99.41,357.77-98.78,358.63-98.92,359.55z"/>
</g>
<g>
	<path class="st25" d="M-90.93,355.93c-0.16,1.05-1.14,1.77-2.19,1.61c-1.05-0.16-1.77-1.14-1.61-2.18s1.14-1.77,2.19-1.61
		C-91.5,353.91-90.77,354.89-90.93,355.93z"/>
</g>
<g>
	<path class="st25" d="M-107.62,359.69c-0.12,0.79-0.86,1.33-1.65,1.21c-0.79-0.12-1.33-0.86-1.22-1.65
		c0.12-0.79,0.86-1.33,1.65-1.21C-108.05,358.17-107.5,358.9-107.62,359.69z"/>
</g>
<g>
	<path class="st25" d="M-8.28,347.15c-0.13,0.81-0.89,1.37-1.7,1.25c-0.82-0.12-1.38-0.88-1.25-1.69c0.12-0.81,0.89-1.37,1.7-1.25
		C-8.72,345.58-8.16,346.34-8.28,347.15z"/>
</g>
<g>
	<path class="st25" d="M-3.16,344c-0.13,0.81-0.89,1.37-1.7,1.25c-0.81-0.12-1.37-0.88-1.25-1.69c0.12-0.81,0.89-1.37,1.7-1.25
		C-3.59,342.42-3.03,343.18-3.16,344z"/>
</g>
<g>
	<path class="st25" d="M-0.71,350.84c-0.08,0.55-0.61,0.94-1.16,0.85c-0.56-0.08-0.94-0.6-0.85-1.16c0.08-0.56,0.61-0.94,1.16-0.85
		C-1.01,349.76-0.63,350.28-0.71,350.84z"/>
</g>
<g>
	<path class="st25" d="M-6.89,353.8c-0.12,0.78-0.85,1.32-1.64,1.2c-0.79-0.12-1.33-0.85-1.21-1.64c0.12-0.78,0.85-1.32,1.64-1.2
		C-7.32,352.28-6.78,353.01-6.89,353.8z"/>
</g>
<g>
	<path class="st25" d="M4.65,343.85c-0.11,0.72-0.78,1.21-1.5,1.1c-0.72-0.11-1.22-0.78-1.11-1.5c0.11-0.72,0.78-1.21,1.51-1.1
		C4.27,342.46,4.76,343.13,4.65,343.85z"/>
</g>
<g>
	<path class="st25" d="M5.42,351.72c-0.08,0.53-0.58,0.9-1.11,0.81c-0.53-0.08-0.9-0.58-0.82-1.11c0.08-0.53,0.58-0.9,1.11-0.82
		C5.14,350.7,5.5,351.19,5.42,351.72z"/>
</g>
<g>
	<path class="st25" d="M0.17,355.68c-0.07,0.44-0.48,0.74-0.92,0.67c-0.44-0.07-0.74-0.47-0.67-0.91c0.07-0.44,0.48-0.74,0.92-0.67
		C-0.06,354.83,0.24,355.24,0.17,355.68z"/>
</g>
<g>
	<path class="st25" d="M-115.76,352.37c-0.09,0.61-0.67,1.03-1.28,0.94c-0.61-0.09-1.04-0.67-0.94-1.28
		c0.09-0.61,0.67-1.03,1.28-0.94C-116.09,351.19-115.67,351.76-115.76,352.37z"/>
</g>
<g>
	<path class="st29" d="M-79.01,255.72c0,0,6.28-3.1,11.47,1.74c4.11,3.84,3.3,8.84,2.15,10.28
		C-66.55,269.19-64.02,258.69-79.01,255.72z"/>
</g>
<g>
	<path class="st29" d="M-56.04,250.87c0,0,6.28-3.1,11.47,1.74c4.11,3.84,3.3,8.84,2.15,10.28
		C-43.58,264.34-41.05,253.84-56.04,250.87z"/>
</g>
<g>
	<path class="st29" d="M-32.26,261.46c0,0,5.86-1.39,10.29,3.38c3.52,3.78,2.7,8.84,1.66,10.32
		C-21.34,276.64-19.21,264.14-32.26,261.46z"/>
</g>
<g>
	<path class="st23" d="M-39.96,319.23c0,7.22,5.87,13.07,13.11,13.07c7.24,0,13.11-5.85,13.11-13.07c0-7.22-5.87-13.07-13.11-13.07
		C-34.09,306.16-39.96,312.01-39.96,319.23z"/>
	<path class="st20" d="M-26.85,334.13c8.24,0,14.95-6.69,14.95-14.9c0-8.22-6.71-14.9-14.95-14.9c-8.24,0-14.95,6.69-14.95,14.9
		C-41.8,327.45-35.09,334.13-26.85,334.13z M-26.85,307.99c6.22,0,11.27,5.04,11.27,11.24c0,6.2-5.06,11.24-11.27,11.24
		c-6.22,0-11.27-5.04-11.27-11.24C-38.12,313.04-33.06,307.99-26.85,307.99z"/>
</g>
<g>
	<path class="st30" d="M-33.97,320.96c0,4.3,3.5,7.79,7.81,7.79c4.31,0,7.81-3.49,7.81-7.79c0-4.3-3.5-7.78-7.81-7.78
		C-30.48,313.18-33.97,316.67-33.97,320.96z"/>
</g>
<g>
	<path class="st23" d="M-28.46,319.59c0,2.28,1.85,4.12,4.13,4.12c2.28,0,4.13-1.84,4.13-4.12c0-2.28-1.85-4.12-4.13-4.12
		C-26.61,315.47-28.46,317.31-28.46,319.59z"/>
</g>
<g>
	<path class="st23" d="M-91.88,314.84c0,7.68,6.25,13.91,13.96,13.91c7.71,0,13.95-6.23,13.95-13.91c0-7.68-6.25-13.91-13.95-13.91
		C-85.64,300.93-91.88,307.16-91.88,314.84z"/>
	<path class="st20" d="M-77.93,330.58c8.71,0,15.79-7.06,15.79-15.74c0-8.68-7.08-15.74-15.79-15.74c-8.71,0-15.79,7.06-15.79,15.74
		C-93.72,323.52-86.64,330.58-77.93,330.58z M-77.93,302.76c6.68,0,12.12,5.42,12.12,12.08c0,6.66-5.44,12.08-12.12,12.08
		c-6.68,0-12.12-5.42-12.12-12.08C-90.05,308.18-84.61,302.76-77.93,302.76z"/>
</g>
<g>
	<path class="st30" d="M-85.51,316.68c0,4.57,3.72,8.29,8.31,8.29c4.59,0,8.31-3.71,8.31-8.29c0-4.57-3.72-8.28-8.31-8.28
		C-81.79,308.4-85.51,312.11-85.51,316.68z"/>
</g>
<g>
	<path class="st23" d="M-78.73,315.48c0,2.28,1.85,4.13,4.14,4.13c2.29,0,4.14-1.85,4.14-4.13c0-2.28-1.85-4.13-4.14-4.13
		C-76.88,311.35-78.73,313.2-78.73,315.48z"/>
</g>
<g>
	<path class="st0" d="M495.12,48.07c12.47,0.43,18.71,1.26,18.71,2.53c1.48,2.27,2.22,4.91,2.22,7.91v1.59
		c0,0.57-0.21,3.41-0.64,8.53v66.09c0.42,9.22,0.64,14.3,0.64,15.18v8.15c0.63,2.85,0.95,4.53,0.95,5.07
		c0,4.64-6.03,6.96-18.08,6.96h-16.49c-5.71,0-8.56-2.85-8.56-8.55c-0.16-0.68-0.37-3.95-0.64-9.8c0.21-0.75,0.32-1.67,0.32-2.78
		v-0.94c-0.64-6.6-0.96-13.36-0.96-20.27V123c0-3.47,0.32-6.12,0.96-7.9c0-2.68,0.1-5.75,0.32-9.17
		c-0.21-8.39-0.32-15.76-0.32-22.08c-1.48-11.46-2.22-18.94-2.22-22.49c0.53-7.59,2.32-11.39,5.39-11.39
		C480.9,48.7,487.03,48.07,495.12,48.07z"/>
	<linearGradient id="SVGID_20_" gradientUnits="userSpaceOnUse" x1="515.2641" y1="45.5473" x2="500.4662" y2="59.0849">
		<stop  offset="0" style="stop-color:#FFD400"/>
		<stop  offset="0.1262" style="stop-color:#FAC801"/>
		<stop  offset="0.3533" style="stop-color:#EBA904"/>
		<stop  offset="0.5989" style="stop-color:#D88008"/>
		<stop  offset="0.6947" style="stop-color:#CF7609"/>
		<stop  offset="0.8579" style="stop-color:#B65B0D"/>
		<stop  offset="1" style="stop-color:#9B3E11"/>
	</linearGradient>
	<path class="st31" d="M492.25,32.91c12.47,0.42,21.58,16.42,21.58,17.69c1.48,2.27,2.22,4.91,2.22,7.91v1.59
		c0,0.57-0.21,3.41-0.64,8.53V79.1l-18.77-18.75L492.25,32.91z"/>
	<linearGradient id="SVGID_21_" gradientUnits="userSpaceOnUse" x1="478.4084" y1="167.8129" x2="494.1692" y2="149.531">
		<stop  offset="0" style="stop-color:#FFD400"/>
		<stop  offset="0.1262" style="stop-color:#FAC801"/>
		<stop  offset="0.3533" style="stop-color:#EBA904"/>
		<stop  offset="0.5989" style="stop-color:#D88008"/>
		<stop  offset="0.6947" style="stop-color:#CF7609"/>
		<stop  offset="0.8579" style="stop-color:#B65B0D"/>
		<stop  offset="1" style="stop-color:#9B3E11"/>
	</linearGradient>
	<path class="st32" d="M497.27,142.05l18.77,16.01c0.63,2.85,0.95,4.53,0.95,5.07c0,4.64-6.03,6.96-18.08,6.96h-16.49
		c-10.65,0-24.08-15.15-24.08-20.85L497.27,142.05z"/>
	<linearGradient id="SVGID_22_" gradientUnits="userSpaceOnUse" x1="478.1222" y1="32.0503" x2="478.1222" y2="154.082">
		<stop  offset="0" style="stop-color:#FFE500"/>
		<stop  offset="0.2749" style="stop-color:#FDE100"/>
		<stop  offset="0.5403" style="stop-color:#F7D600"/>
		<stop  offset="0.8011" style="stop-color:#EDC200"/>
		<stop  offset="1" style="stop-color:#E3AE00"/>
	</linearGradient>
	<path class="st33" d="M479.08,32.05c12.47,0.43,18.71,1.27,18.71,2.54c1.48,2.27,2.22,4.91,2.22,7.91v1.57
		c0,0.58-0.22,3.43-0.64,8.55v66.09c0.42,9.22,0.64,14.28,0.64,15.18v8.15c0.63,2.85,0.95,4.53,0.95,5.06
		c0,4.65-6.02,6.97-18.07,6.97h-16.49c-5.71,0-8.56-2.85-8.56-8.55c-0.16-0.68-0.37-3.95-0.63-9.8c0.21-0.75,0.32-1.67,0.32-2.78
		V132c-0.64-6.58-0.95-13.34-0.95-20.25v-4.76c0-3.47,0.32-6.12,0.95-7.9c0-2.68,0.11-5.75,0.32-9.17
		c-0.21-8.39-0.32-15.76-0.32-22.08c-1.48-11.46-2.22-18.94-2.22-22.49c0.53-7.6,2.33-11.39,5.39-11.39
		C464.86,32.69,470.99,32.05,479.08,32.05z"/>
	<linearGradient id="SVGID_23_" gradientUnits="userSpaceOnUse" x1="478.9904" y1="32.0503" x2="478.9904" y2="154.0738">
		<stop  offset="0" style="stop-color:#FFFDF6"/>
		<stop  offset="0.0872" style="stop-color:#FFFBED"/>
		<stop  offset="0.2301" style="stop-color:#FFF6D4"/>
		<stop  offset="0.4111" style="stop-color:#FFEEAC"/>
		<stop  offset="0.6231" style="stop-color:#FFE374"/>
		<stop  offset="0.8583" style="stop-color:#FFD42E"/>
		<stop  offset="1" style="stop-color:#FFCB00"/>
	</linearGradient>
	<path class="st34" d="M500,133.9c0-0.9-0.22-5.97-0.64-15.18V52.63c0.42-5.12,0.64-7.97,0.64-8.55v-1.57c0-3-0.74-5.64-2.22-7.91
		c0-1.27-6.24-2.11-18.71-2.54c-8.09,0-14.22,0.64-18.39,1.91c-1.54,0-2.76,0.96-3.66,2.88c0.3-0.09,0.6-0.15,0.93-0.15
		c4.17-1.27,10.3-1.9,18.39-1.9c12.47,0.42,18.71,1.26,18.71,2.53c1.48,2.26,2.22,4.91,2.22,7.92v1.58c0,0.57-0.21,3.42-0.63,8.54
		v66.08c0.42,9.23,0.63,14.3,0.63,15.19v8.15c0.63,2.84,0.96,4.53,0.96,5.06c0,0.66-0.15,1.25-0.39,1.8
		c2.03-1.12,3.11-2.61,3.11-4.52c0-0.53-0.32-2.21-0.95-5.06V133.9z"/>
</g>
<g>
	<path class="st0" d="M209.56,48.02c13.02,0.62,19.53,2.42,19.53,5.41c0.41,1.04,0.73,3.04,0.93,6.04
		c-1.86,10.32-2.79,18.95-2.79,25.92c-0.52,0-0.93,3.4-1.24,10.2v21.36c0.62,4.07,1.03,8.58,1.24,13.53
		c1.24,2.9,2.38,6.12,3.41,9.68c1.71,0.77,2.95,1.16,3.72,1.16h1.24c4.34-0.98,6.51-2.16,6.51-3.56c1.45,0,2.89-3.81,4.34-11.46
		c-0.21-4.49-0.31-8.1-0.31-10.82v-8.75c0.47-16.87,0.98-25.3,1.55-25.3v-4.79c0-3.15-0.1-6.37-0.31-9.68
		c0.98-11.23,3.67-16.87,8.06-16.87c3.26-0.98,5.63-1.46,7.13-1.46c5.27-0.21,10.13-0.32,14.57-0.32c1.96,0,4.55,0.91,7.75,2.71
		c2.07,2.9,3.1,6.02,3.1,9.37v19.26c0.83,8.82,1.24,14.35,1.24,16.56v7.81c0,1.18-0.41,2.99-1.24,5.41v7.81
		c-1.24,6.93-2.48,12.75-3.72,17.5c-1.45,5.87-3,9.79-4.65,11.75c-4.24,9.24-7.34,13.86-9.3,13.86c0,1.08-3.21,2.89-9.61,5.41
		c-5.58,2.58-9.3,3.86-11.16,3.86h-4.34c-3,0.42-4.65,0.62-4.96,0.62h-4.03c-11.11,0-19.48-2.11-25.11-6.34
		c-8.58-4.23-15.3-12.04-20.15-23.45c-2.69-5.25-4.03-11.51-4.03-18.72c0.21-6.81,0.31-13.02,0.31-18.65v-8.75
		c0-2.94,0.1-6.34,0.31-10.2c-0.62-7.29-0.93-11.48-0.93-12.61c1.09-11.23,2.64-17.97,4.65-20.19c0.93-1.8,5.58-2.71,13.95-2.71
		C205.22,48.38,206.66,48.16,209.56,48.02z"/>
	<linearGradient id="SVGID_24_" gradientUnits="userSpaceOnUse" x1="226.7654" y1="49.5196" x2="214.5798" y2="64.7522">
		<stop  offset="0" style="stop-color:#FFD400"/>
		<stop  offset="0.1262" style="stop-color:#FAC801"/>
		<stop  offset="0.3533" style="stop-color:#EBA904"/>
		<stop  offset="0.5989" style="stop-color:#D88008"/>
		<stop  offset="0.6947" style="stop-color:#CF7609"/>
		<stop  offset="0.8579" style="stop-color:#B65B0D"/>
		<stop  offset="1" style="stop-color:#9B3E11"/>
	</linearGradient>
	<path class="st35" d="M209.59,34.54c13.06,6.66,19.5,15.9,19.5,18.89c0.41,1.04,0.73,3.04,0.93,6.04
		c-1.86,10.32-2.79,18.95-2.79,25.92l-18.21-17.87L209.59,34.54z"/>
	<linearGradient id="SVGID_25_" gradientUnits="userSpaceOnUse" x1="282.2092" y1="51.2808" x2="273.0774" y2="64.2192">
		<stop  offset="0" style="stop-color:#FFD400"/>
		<stop  offset="0.1262" style="stop-color:#FAC801"/>
		<stop  offset="0.3533" style="stop-color:#EBA904"/>
		<stop  offset="0.5989" style="stop-color:#D88008"/>
		<stop  offset="0.6947" style="stop-color:#CF7609"/>
		<stop  offset="0.8579" style="stop-color:#B65B0D"/>
		<stop  offset="1" style="stop-color:#9B3E11"/>
	</linearGradient>
	<path class="st36" d="M268.05,34.77c1.96,0,16.84,16.26,16.84,16.26c2.07,2.9,3.1,6.02,3.1,9.37v19.26l-21.87-17.82L268.05,34.77z"
		/>
	<linearGradient id="SVGID_26_" gradientUnits="userSpaceOnUse" x1="210.0136" y1="161.7203" x2="230.2339" y2="144.5529">
		<stop  offset="0" style="stop-color:#FFD400"/>
		<stop  offset="0.1262" style="stop-color:#FAC801"/>
		<stop  offset="0.3533" style="stop-color:#EBA904"/>
		<stop  offset="0.5989" style="stop-color:#D88008"/>
		<stop  offset="0.6947" style="stop-color:#CF7609"/>
		<stop  offset="0.8579" style="stop-color:#B65B0D"/>
		<stop  offset="1" style="stop-color:#9B3E11"/>
	</linearGradient>
	<path class="st37" d="M245.53,145.23l15.18,20.54c-5.58,2.58-9.3,3.86-11.16,3.86h-4.34c-3,0.42-4.65,0.62-4.96,0.62h-4.03
		c-11.11,0-19.48-2.11-25.11-6.34c0,0-20.8-13.23-28.32-26.17L245.53,145.23z"/>
	<linearGradient id="SVGID_27_" gradientUnits="userSpaceOnUse" x1="222.2393" y1="32.3594" x2="222.2393" y2="154.5972">
		<stop  offset="0" style="stop-color:#FFE500"/>
		<stop  offset="0.2749" style="stop-color:#FDE100"/>
		<stop  offset="0.5403" style="stop-color:#F7D600"/>
		<stop  offset="0.8011" style="stop-color:#EDC200"/>
		<stop  offset="1" style="stop-color:#E3AE00"/>
	</linearGradient>
	<path class="st38" d="M193.87,32.36c13.02,0.62,19.53,2.42,19.53,5.41c0.41,1.04,0.72,3.04,0.93,6.04
		c-1.86,10.32-2.79,18.94-2.79,25.92c-0.51,0-0.93,3.39-1.24,10.2v21.35c0.62,4.07,1.03,8.59,1.24,13.54
		c1.24,2.9,2.38,6.12,3.41,9.68c1.7,0.77,2.95,1.16,3.72,1.16h1.24c4.34-0.98,6.51-2.17,6.51-3.57c1.45,0,2.9-3.8,4.34-11.44
		c-0.21-4.49-0.31-8.1-0.31-10.83v-8.74c0.47-16.87,0.98-25.3,1.55-25.3v-4.79c0-3.15-0.1-6.37-0.31-9.68
		c0.98-11.24,3.67-16.87,8.06-16.87c3.26-0.98,5.64-1.46,7.13-1.46c5.27-0.21,10.13-0.32,14.57-0.32c1.96,0,4.55,0.89,7.75,2.71
		c2.07,2.9,3.1,6.01,3.1,9.37V64c0.83,8.82,1.24,14.34,1.24,16.56v7.81c0,1.18-0.41,2.99-1.24,5.41v7.81
		c-1.24,6.93-2.48,12.74-3.72,17.49c-1.44,5.89-2.99,9.8-4.65,11.76c-4.23,9.24-7.34,13.86-9.3,13.86c0,1.07-3.2,2.89-9.61,5.41
		c-5.58,2.58-9.3,3.86-11.16,3.86h-4.34c-3,0.41-4.65,0.62-4.96,0.62h-4.03c-11.11,0-19.48-2.11-25.11-6.34
		c-8.58-4.23-15.29-12.04-20.15-23.45c-2.69-5.26-4.03-11.51-4.03-18.72c0.2-6.81,0.31-13.02,0.31-18.65V78.7
		c0-2.94,0.1-6.34,0.31-10.2c-0.62-7.29-0.93-11.49-0.93-12.61c1.08-11.26,2.63-17.97,4.65-20.19c0.93-1.81,5.58-2.71,13.95-2.71
		C189.53,32.72,190.98,32.51,193.87,32.36z"/>
	<linearGradient id="SVGID_28_" gradientUnits="userSpaceOnUse" x1="199.8063" y1="32.3594" x2="199.8063" y2="154.5871">
		<stop  offset="0" style="stop-color:#FFFDF6"/>
		<stop  offset="0.0872" style="stop-color:#FFFBED"/>
		<stop  offset="0.2301" style="stop-color:#FFF6D4"/>
		<stop  offset="0.4111" style="stop-color:#FFEEAC"/>
		<stop  offset="0.6231" style="stop-color:#FFE374"/>
		<stop  offset="0.8583" style="stop-color:#FFD42E"/>
		<stop  offset="1" style="stop-color:#FFCB00"/>
	</linearGradient>
	<path class="st39" d="M191.21,35.02c13.02,0.62,19.53,2.42,19.53,5.42c0.41,1.02,0.73,3.03,0.93,6.02
		c-1.86,10.33-2.79,18.95-2.79,25.92c-0.52,0-0.93,3.4-1.24,10.21v21.36c0.62,4.06,1.03,8.58,1.24,13.53
		c1.24,2.89,2.38,6.12,3.41,9.68c1.71,0.77,2.95,1.15,3.72,1.15h1.24c4.34-0.98,6.51-2.16,6.51-3.56c0.37,0,0.76-0.26,1.14-0.79
		c-1.08,0.62-2.72,1.19-4.98,1.69h-1.24c-0.77,0-2.02-0.39-3.72-1.16c-1.04-3.56-2.17-6.78-3.41-9.68
		c-0.2-4.95-0.62-9.47-1.24-13.54V79.94c0.31-6.81,0.72-10.2,1.24-10.2c0-6.98,0.93-15.6,2.79-25.92c-0.21-3-0.51-5-0.93-6.04
		c0-2.99-6.51-4.79-19.53-5.41c-2.9,0.15-4.34,0.36-4.34,0.62c-8.37,0-13.02,0.89-13.95,2.71c-0.3,0.33-0.59,0.78-0.86,1.32
		c2.2-0.91,6.22-1.36,12.15-1.36C186.87,35.38,188.31,35.17,191.21,35.02z"/>
	<linearGradient id="SVGID_29_" gradientUnits="userSpaceOnUse" x1="254.2993" y1="32.3585" x2="254.2993" y2="154.5997">
		<stop  offset="0" style="stop-color:#FFFDF6"/>
		<stop  offset="0.0872" style="stop-color:#FFFBED"/>
		<stop  offset="0.2301" style="stop-color:#FFF6D4"/>
		<stop  offset="0.4111" style="stop-color:#FFEEAC"/>
		<stop  offset="0.6231" style="stop-color:#FFE374"/>
		<stop  offset="0.8583" style="stop-color:#FFD42E"/>
		<stop  offset="1" style="stop-color:#FFCB00"/>
	</linearGradient>
	<path class="st40" d="M272.31,44.74c0-3.36-1.03-6.47-3.1-9.37c-3.2-1.81-5.78-2.71-7.75-2.71c-4.45,0-9.3,0.11-14.57,0.32
		c-1.5,0-3.87,0.48-7.13,1.46c-1.89,0-3.44,1.12-4.7,3.19c0.64-0.32,1.31-0.53,2.04-0.53c3.26-0.98,5.63-1.46,7.13-1.46
		c5.27-0.21,10.13-0.32,14.57-0.32c1.96,0,4.55,0.91,7.75,2.71c2.07,2.9,3.1,6.02,3.1,9.37v19.26c0.83,8.82,1.24,14.34,1.24,16.56
		v7.81c0,1.19-0.41,2.99-1.24,5.42v7.81c-1.24,6.91-2.48,12.74-3.72,17.48c-1.45,5.89-3,9.8-4.65,11.76
		c-2.33,5.09-4.31,8.72-5.95,11c1.97-0.89,4.84-5.43,8.62-13.67c1.66-1.96,3.21-5.88,4.65-11.76c1.24-4.75,2.48-10.56,3.72-17.49
		v-7.81c0.83-2.42,1.24-4.23,1.24-5.41v-7.81c0-2.22-0.41-7.74-1.24-16.56V44.74z"/>
</g>
<g>
	<path class="st0" d="M369.25,136.26c0.24,0.73,0.48,1.87,0.7,3.44l0.17,4.01c-0.34,1.91-0.51,2.99-0.49,3.25l0.55,12.67
		c0.16,3.62-3.84,6.11-12,7.46l-3.47,0.15c-12.82,0.55-20.74-0.05-23.77-1.82c-4.07-1.72-6.17-3.94-6.29-6.67l-0.18-4.09
		c-0.17-3.88-0.17-8.69,0.01-14.43c-0.45-0.71-0.69-1.49-0.73-2.33c-0.02-0.47,0.15-1.42,0.51-2.86c-0.43-5.03-0.68-8.41-0.75-10.14
		c1.3-8.83,1.87-15.4,1.68-19.7c0.21-0.01,0.29-0.51,0.25-1.51c-0.05-1.26-0.29-4.22-0.7-8.88c-0.05-1.16-0.03-3.18,0.05-6.07
		c-0.35-3.24-0.56-5.76-0.64-7.54c0.08-9.09,0.25-14.88,0.51-17.36c-0.33-2.87-0.54-5.28-0.62-7.23l-0.07-1.73
		c-0.25-5.72,2.02-9.28,6.8-10.7c-0.02-0.36,1.44-0.79,4.37-1.29c1.85,0.08,3,0.1,3.48,0.08c3.15-0.29,4.82-0.55,5.02-0.77
		c3.43,0.12,6.36,0.39,8.8,0.81l16.47-0.71c7.62-0.33,17.27,1.18,28.94,4.51c2.1,1.07,5.1,2.2,8.99,3.4
		c3.91,1.46,7.4,4.28,10.48,8.46c4.78,4.84,7.37,8.7,7.76,11.57c0.6,0.5,1.07,1.53,1.4,3.09l0.15,3.46c0.03,0.74-0.16,1.27-0.56,1.6
		l0.02,0.47c0.23,5.35-1.28,11.77-4.54,19.27c-2.67,6.31-6.64,10.88-11.89,13.67c4.79,9.57,9.02,16.17,12.7,19.79
		c0.04,0.94,3.28,2.9,9.73,5.89c2.84,2.35,4.31,4.63,4.4,6.83l0.2,4.56c0.3,7.03-1.49,11.84-5.38,14.42
		c-2.47,1.26-4.34,1.92-5.6,1.97l-7.57,0.33c-3.41,0.15-9.04-0.95-16.88-3.29c-8.2-3.33-15.31-11.9-21.33-25.73
		c-3.08-6.8-5.43-12.35-7.03-16.64l-5.05,0.22c0.22,0.36,0.34,0.65,0.35,0.85C368.45,126.83,368.8,131.92,369.25,136.26z
		 M374.15,68.57c-1.49-0.31-3.29-0.57-5.4-0.79c-0.73,0.14-1.36,0.24-1.88,0.31l0.82,19.04c-0.34,1.91-0.51,2.99-0.49,3.25
		l0.33,7.63c0.79-0.14,1.73-0.23,2.83-0.28c0.46-0.28,0.9-0.51,1.31-0.69c0.97-0.62,2.07-1.43,3.29-2.43
		c4.82-5.46,7.13-10.48,6.94-15.04c0.21-0.01,0.3-0.3,0.27-0.88c-1.24-4.36-2.28-6.52-3.12-6.49
		C377.45,70.72,375.82,69.5,374.15,68.57z"/>
	
		<linearGradient id="SVGID_30_" gradientUnits="userSpaceOnUse" x1="415.9776" y1="73.4102" x2="402.2796" y2="83.2524" gradientTransform="matrix(0.9991 -0.043 0.043 0.9991 -1.0398 4.7432)">
		<stop  offset="0" style="stop-color:#FFD400"/>
		<stop  offset="0.1262" style="stop-color:#FAC801"/>
		<stop  offset="0.3533" style="stop-color:#EBA904"/>
		<stop  offset="0.5989" style="stop-color:#D88008"/>
		<stop  offset="0.6947" style="stop-color:#CF7609"/>
		<stop  offset="0.8579" style="stop-color:#B65B0D"/>
		<stop  offset="1" style="stop-color:#9B3E11"/>
	</linearGradient>
	<path class="st41" d="M394.65,37.38c10.08,4.34,22.53,18.11,22.53,18.11c4.79,4.84,7.51,11.87,7.9,14.75
		c0.6,0.5,1.07,1.53,1.4,3.09l0.15,3.46c0.03,0.74-0.16,1.27-0.56,1.6l0.02,0.47c0.23,5.35-1.28,11.77-4.54,19.27l-19.24-21.9
		L394.65,37.38z"/>
	
		<linearGradient id="SVGID_31_" gradientUnits="userSpaceOnUse" x1="426.0018" y1="152.1245" x2="415.4421" y2="159.4087" gradientTransform="matrix(0.9991 -0.043 0.043 0.9991 -1.0398 4.7432)">
		<stop  offset="0" style="stop-color:#FFD400"/>
		<stop  offset="0.1262" style="stop-color:#FAC801"/>
		<stop  offset="0.3533" style="stop-color:#EBA904"/>
		<stop  offset="0.5989" style="stop-color:#D88008"/>
		<stop  offset="0.6947" style="stop-color:#CF7609"/>
		<stop  offset="0.8579" style="stop-color:#B65B0D"/>
		<stop  offset="1" style="stop-color:#9B3E11"/>
	</linearGradient>
	<path class="st42" d="M417.19,123.87c1.48,1.35,8.24,5.74,14.82,11.76c2.72,2.49,4.39,6.49,4.48,8.69l0.2,4.56
		c0.3,7.03-1.49,11.84-5.38,14.42l-16.43-20.72L417.19,123.87z"/>
	
		<linearGradient id="SVGID_32_" gradientUnits="userSpaceOnUse" x1="380.0788" y1="169.9312" x2="394.8819" y2="158.5751" gradientTransform="matrix(0.9991 -0.043 0.043 0.9991 -1.0398 4.7432)">
		<stop  offset="0" style="stop-color:#FFD400"/>
		<stop  offset="0.1262" style="stop-color:#FAC801"/>
		<stop  offset="0.3533" style="stop-color:#EBA904"/>
		<stop  offset="0.5989" style="stop-color:#D88008"/>
		<stop  offset="0.6947" style="stop-color:#CF7609"/>
		<stop  offset="0.8579" style="stop-color:#B65B0D"/>
		<stop  offset="1" style="stop-color:#9B3E11"/>
	</linearGradient>
	<path class="st43" d="M407.8,145.27l17.9,20.02l-7.57,0.33c-3.41,0.15-9.04-0.95-16.88-3.29c-8.2-3.33-26.36-16.33-32.38-30.16
		L407.8,145.27z"/>
	
		<linearGradient id="SVGID_33_" gradientUnits="userSpaceOnUse" x1="325.2377" y1="172.7236" x2="336.9198" y2="158.9837" gradientTransform="matrix(0.9991 -0.043 0.043 0.9991 -1.0398 4.7432)">
		<stop  offset="0" style="stop-color:#FFD400"/>
		<stop  offset="0.1262" style="stop-color:#FAC801"/>
		<stop  offset="0.3533" style="stop-color:#EBA904"/>
		<stop  offset="0.5989" style="stop-color:#D88008"/>
		<stop  offset="0.6947" style="stop-color:#CF7609"/>
		<stop  offset="0.8579" style="stop-color:#B65B0D"/>
		<stop  offset="1" style="stop-color:#9B3E11"/>
	</linearGradient>
	<path class="st44" d="M350.71,141.8l19.47,17.83c0.16,3.62-3.84,6.11-12,7.46l-3.47,0.15c-12.82,0.55-20.31-1.24-23.77-1.82
		c-9.07-1.5-18.6-14.08-22.64-20.4L350.71,141.8z"/>
	
		<linearGradient id="SVGID_34_" gradientUnits="userSpaceOnUse" x1="358.9681" y1="36.3146" x2="358.9681" y2="162.7982" gradientTransform="matrix(0.9991 -0.043 0.043 0.9991 -1.0398 4.7432)">
		<stop  offset="0" style="stop-color:#FFE500"/>
		<stop  offset="0.2749" style="stop-color:#FDE100"/>
		<stop  offset="0.5403" style="stop-color:#F7D600"/>
		<stop  offset="0.8011" style="stop-color:#EDC200"/>
		<stop  offset="1" style="stop-color:#E3AE00"/>
	</linearGradient>
	<path class="st45" d="M352.61,121.02c0.25,0.73,0.48,1.87,0.71,3.44l0.17,4.01c-0.34,1.91-0.51,2.99-0.49,3.25l0.55,12.67
		c0.16,3.62-3.84,6.11-12,7.45l-3.47,0.15c-12.82,0.55-20.74-0.05-23.77-1.82c-4.07-1.72-6.17-3.94-6.28-6.67l-0.18-4.09
		c-0.17-3.88-0.17-8.69,0.01-14.43c-0.45-0.71-0.69-1.49-0.73-2.33c-0.02-0.47,0.15-1.43,0.51-2.86c-0.43-5.03-0.68-8.4-0.76-10.14
		c1.31-8.83,1.87-15.4,1.68-19.7c0.21-0.01,0.29-0.51,0.25-1.51c-0.05-1.26-0.29-4.22-0.69-8.88c-0.05-1.16-0.03-3.18,0.05-6.07
		c-0.35-3.24-0.56-5.76-0.64-7.54c0.08-9.09,0.25-14.88,0.51-17.36c-0.33-2.88-0.54-5.28-0.62-7.23l-0.07-1.73
		c-0.25-5.72,2.02-9.29,6.8-10.7c-0.02-0.36,1.44-0.79,4.37-1.29c1.85,0.08,3,0.1,3.48,0.08c3.15-0.29,4.82-0.55,5.02-0.77
		c3.43,0.12,6.36,0.39,8.8,0.81l16.47-0.71c7.62-0.33,17.27,1.18,28.94,4.51c2.1,1.07,5.1,2.2,8.99,3.4
		c3.9,1.46,7.39,4.28,10.47,8.46c4.78,4.84,7.37,8.7,7.76,11.57c0.6,0.5,1.07,1.53,1.4,3.09l0.15,3.46c0.03,0.74-0.16,1.27-0.56,1.6
		l0.02,0.47c0.23,5.35-1.28,11.77-4.54,19.27c-2.67,6.31-6.64,10.88-11.89,13.67c4.79,9.57,9.02,16.17,12.7,19.79
		c0.04,0.94,3.28,2.9,9.73,5.89c2.84,2.35,4.31,4.63,4.4,6.83l0.2,4.57c0.3,7.03-1.49,11.83-5.38,14.42
		c-2.47,1.26-4.34,1.92-5.6,1.97l-7.57,0.32c-3.41,0.15-9.04-0.95-16.88-3.29c-8.2-3.33-15.31-11.9-21.33-25.73
		c-3.08-6.8-5.43-12.35-7.03-16.64l-5.04,0.22c0.22,0.36,0.34,0.64,0.35,0.85C351.81,111.59,352.16,116.68,352.61,121.02z
		 M357.51,53.33c-1.49-0.3-3.29-0.57-5.4-0.79c-0.73,0.14-1.36,0.24-1.88,0.31l0.82,19.04c-0.34,1.91-0.51,2.99-0.49,3.25l0.33,7.63
		c0.79-0.14,1.73-0.23,2.83-0.28c0.46-0.28,0.9-0.51,1.31-0.69c0.97-0.62,2.07-1.43,3.29-2.43c4.82-5.46,7.13-10.48,6.94-15.04
		c0.21-0.01,0.3-0.3,0.27-0.88c-1.24-4.36-2.28-6.52-3.12-6.49C360.81,55.48,359.18,54.26,357.51,53.33z"/>
	
		<linearGradient id="SVGID_35_" gradientUnits="userSpaceOnUse" x1="401.0787" y1="34.2465" x2="401.0787" y2="162.8323" gradientTransform="matrix(0.9991 -0.043 0.043 0.9991 -1.0398 4.7432)">
		<stop  offset="0" style="stop-color:#FFFDF6"/>
		<stop  offset="0.0872" style="stop-color:#FFFBED"/>
		<stop  offset="0.2301" style="stop-color:#FFF6D4"/>
		<stop  offset="0.4111" style="stop-color:#FFEEAC"/>
		<stop  offset="0.6231" style="stop-color:#FFE374"/>
		<stop  offset="0.8583" style="stop-color:#FFD42E"/>
		<stop  offset="1" style="stop-color:#FFCB00"/>
	</linearGradient>
	<path class="st46" d="M415.45,122.26c-6.45-2.98-9.69-4.94-9.73-5.89c-3.57-3.51-8.1-10.71-12.7-19.79l-2.6,2.82
		c4.79,9.57,9.02,16.17,12.7,19.79c0.04,0.94,3.28,2.9,9.73,5.89c2.84,2.35,4.31,4.63,4.4,6.83l0.2,4.57
		c0.21,4.82-0.65,8.52-2.41,11.25c3.6-2.65,5.3-7.3,5.01-14.07l-0.2-4.57C419.75,126.89,418.28,124.61,415.45,122.26z"/>
	
		<linearGradient id="SVGID_36_" gradientUnits="userSpaceOnUse" x1="358.1924" y1="36.3146" x2="358.1924" y2="162.8003" gradientTransform="matrix(0.9991 -0.043 0.043 0.9991 -1.0398 4.7432)">
		<stop  offset="0" style="stop-color:#FFFDF6"/>
		<stop  offset="0.0872" style="stop-color:#FFFBED"/>
		<stop  offset="0.2301" style="stop-color:#FFF6D4"/>
		<stop  offset="0.4111" style="stop-color:#FFEEAC"/>
		<stop  offset="0.6231" style="stop-color:#FFE374"/>
		<stop  offset="0.8583" style="stop-color:#FFD42E"/>
		<stop  offset="1" style="stop-color:#FFCB00"/>
	</linearGradient>
	<path class="st47" d="M315.9,30.48c1.85,0.08,3,0.1,3.48,0.08c3.15-0.29,4.82-0.55,5.02-0.77c3.43,0.12,6.36,0.39,8.8,0.81
		l16.47-0.71c7.62-0.33,17.27,1.17,28.94,4.51c2.1,1.07,5.1,2.2,8.99,3.4c3.9,1.46,7.39,4.28,10.47,8.46
		c4.78,4.84,7.37,8.7,7.76,11.57c0.6,0.5,1.07,1.53,1.4,3.09l0.15,3.46c0.03,0.74-0.16,1.27-0.56,1.6l0.02,0.47
		c0.23,5.35-1.28,11.77-4.54,19.27c-1.14,2.69-2.57,5-4.18,7.06c2.77-2.6,5.06-5.85,6.77-9.88c3.26-7.5,4.77-13.93,4.54-19.27
		l-0.02-0.47c0.4-0.33,0.59-0.87,0.56-1.6l-0.15-3.46c-0.33-1.57-0.8-2.6-1.4-3.09c-0.39-2.87-2.98-6.73-7.76-11.57
		c-3.08-4.18-6.57-6.99-10.47-8.46c-3.89-1.2-6.89-2.33-8.99-3.4c-11.67-3.33-21.32-4.84-28.94-4.51l-16.47,0.71
		c-2.44-0.42-5.38-0.69-8.8-0.81c-0.2,0.22-1.87,0.48-5.02,0.77c-0.47,0.02-1.63-0.01-3.48-0.08c-2.93,0.49-4.39,0.93-4.37,1.29
		c-2.56,0.76-4.34,2.18-5.46,4.17c0.83-0.56,1.76-1.02,2.86-1.35C311.52,31.41,312.97,30.98,315.9,30.48z"/>
	
		<linearGradient id="SVGID_37_" gradientUnits="userSpaceOnUse" x1="346.9838" y1="30.8295" x2="346.9838" y2="162.9538" gradientTransform="matrix(0.9991 -0.043 0.043 0.9991 -1.0398 4.7432)">
		<stop  offset="0" style="stop-color:#FFFDF6"/>
		<stop  offset="0.0872" style="stop-color:#FFFBED"/>
		<stop  offset="0.2301" style="stop-color:#FFF6D4"/>
		<stop  offset="0.4111" style="stop-color:#FFEEAC"/>
		<stop  offset="0.6231" style="stop-color:#FFE374"/>
		<stop  offset="0.8583" style="stop-color:#FFD42E"/>
		<stop  offset="1" style="stop-color:#FFCB00"/>
	</linearGradient>
	<path class="st48" d="M348.96,108.6c0.25,5.82,0.61,10.9,1.05,15.25c0.24,0.73,0.48,1.87,0.7,3.44l0.17,4.02
		c-0.34,1.91-0.51,2.99-0.5,3.25l0.55,12.67c0.03,0.63-0.12,1.22-0.35,1.79c2.04-1.25,3.02-2.79,2.95-4.61l-0.55-12.67
		c-0.01-0.26,0.15-1.35,0.49-3.25l-0.17-4.01c-0.23-1.56-0.46-2.71-0.71-3.44c-0.4-3.85-0.7-8.39-0.95-13.41l-0.1-1.84
		C351.78,106.13,348.95,108.39,348.96,108.6z"/>
	
		<linearGradient id="SVGID_38_" gradientUnits="userSpaceOnUse" x1="350.1916" y1="31.4299" x2="350.1916" y2="168.2963" gradientTransform="matrix(0.9991 -0.043 0.043 0.9991 -1.0398 4.7432)">
		<stop  offset="0" style="stop-color:#FFFDF6"/>
		<stop  offset="0.0872" style="stop-color:#FFFBED"/>
		<stop  offset="0.2301" style="stop-color:#FFF6D4"/>
		<stop  offset="0.4111" style="stop-color:#FFEEAC"/>
		<stop  offset="0.6231" style="stop-color:#FFE374"/>
		<stop  offset="0.8583" style="stop-color:#FFD42E"/>
		<stop  offset="1" style="stop-color:#FFCB00"/>
	</linearGradient>
	<path class="st49" d="M353.71,82.51c-1.1,0.05-2.04,0.14-2.83,0.28l-0.33-7.63c-0.01-0.26,0.15-1.35,0.49-3.25l-0.71-16.43
		c-0.29-0.03,0.19-2.59-0.11-2.61c0.3,0.03-2.6,2.82-2.6,2.82l0.82,19.04c-0.34,1.91-0.51,2.99-0.49,3.25l0.33,7.63
		c0.79-0.14,1.73-0.23,2.83-0.28c0.46-0.28,0.9-0.51,1.31-0.69c0.97-0.62,2.07-1.43,3.29-2.43c0.65-0.73,1.13-1.44,1.69-2.16
		c-0.83,0.65-1.68,1.31-2.38,1.76C354.61,81.99,354.17,82.23,353.71,82.51z"/>
</g>
<g>
	<path class="st20" d="M59.79,175.83c0.09,0,0.18-0.01,0.27-0.02c1-0.15,1.7-1.08,1.55-2.08c-2.15-14.58,1.43-21.23,1.47-21.3
		c0.49-0.88,0.18-1.99-0.7-2.49c-0.88-0.49-1.99-0.19-2.49,0.68c-0.18,0.3-4.27,7.65-1.91,23.63
		C58.11,175.18,58.89,175.83,59.79,175.83z"/>
</g>
<g>
	<path class="st20" d="M50.38,174.81c0.38,0,0.76-0.11,1.08-0.35l7.78-5.66l7.03,4.47c0.85,0.54,1.99,0.29,2.54-0.56
		c0.55-0.85,0.3-1.98-0.56-2.53l-8.09-5.14c-0.64-0.41-1.46-0.38-2.07,0.06l-8.8,6.4c-0.82,0.6-1,1.74-0.4,2.56
		C49.25,174.55,49.81,174.81,50.38,174.81z"/>
</g>
<g>
	<path class="st20" d="M91.53,175.84c0.18,0,0.36-0.03,0.55-0.08c0.97-0.3,1.51-1.33,1.21-2.29c-4.38-14-3.68-30.64-3.68-30.81
		c0.05-1.01-0.74-1.86-1.75-1.91c-1.03-0.02-1.87,0.74-1.92,1.74c-0.03,0.71-0.73,17.46,3.84,32.06
		C90.02,175.33,90.75,175.84,91.53,175.84z"/>
</g>
<g>
	<path class="st20" d="M83.11,174.81c0.57,0,1.14-0.27,1.5-0.77l5.59-7.79l8.84,5.11c0.88,0.51,2,0.21,2.51-0.66
		c0.51-0.87,0.21-1.99-0.67-2.5l-10.28-5.95c-0.82-0.47-1.87-0.25-2.42,0.52l-6.56,9.15c-0.59,0.82-0.4,1.96,0.43,2.55
		C82.37,174.7,82.74,174.81,83.11,174.81z"/>
</g>
<g>
	<path class="st21" d="M109.16,13.73c-2.72-0.41-5.38-0.15-7.84,0.64C99.64,8.01,94.31,2.93,87.36,1.87
		c-7.69-1.16-14.42,0.53-17.54,7.2c-1.25-0.56-5.5-1.97-6.92-2.19c-8.53-1.29-16.27,3.83-17.57,12.32
		c-1.3,8.49,6.72,20.56,15.25,21.85c6.52,0.99,12.69-2.19,15.83-7.53c1.75,0.98,3.7,1.69,5.8,2c2.66,0.4,5.26,0.15,7.67-0.6
		c1.67,6.46,7.06,11.63,14.1,12.69c9.41,1.42,14.05-6.91,15.48-16.27C120.89,22,118.57,15.15,109.16,13.73z"/>
</g>
<g>
	<path class="st22" d="M3.97,92.48c2.76-22.29,9.41-63.12,66.66-60.62c57.24,2.5,78.65,17.57,78.3,59.33
		c-0.26,30.19,4.96,51.6-50.75,61.36c-55.71,9.76-81.76,2.06-89.97-9.04C2.91,136.34,1.46,112.7,3.97,92.48z"/>
</g>
<g>
	<g>
		<path class="st23" d="M49.7,156.89c0,0,3-24.77,33.09-28.54c30.09-3.77,27.73,21.59,27.73,21.59L49.7,156.89z"/>
	</g>
</g>
<g class="st24">
	<path class="st25" d="M2.01,101.79c0,0,2.33,42.17,25.77,43.87c23.44,1.7,96.63,2.45,113.06-20.99c6.79-9.68,7.92-27.02,7.92-27.02
		s9.92,39.17-21.68,48.11c-5.6,1.58-82.61,19.14-109.7,5.79C-4.3,140.86,2.01,101.79,2.01,101.79z"/>
</g>
<g>
	<path class="st20" d="M51.15,158.29C51.15,158.29,51.15,158.29,51.15,158.29c14.14,0,31.73-1.58,52.27-4.69
		c44.94-6.81,51.01-24.04,48.17-62.64c-2.94-39.99-27.04-61.12-69.68-61.12c-1.32,0-2.49,0.02-3.49,0.03
		c-0.72,0.01-1.36,0.02-1.88,0.02c-44.4,0-64.85,15.45-72.93,55.11c-5.01,24.58-4.8,43.07,0.63,54.95
		c4.58,10.02,11.71,12.72,14.75,13.87C24.07,155.73,32.95,158.29,51.15,158.29z M81.91,33.49c40.4,0,63.23,19.96,66.01,57.73
		c2.79,37.91-3.6,52.48-45.05,58.76c-20.36,3.08-37.76,4.65-51.71,4.65c0,0,0,0,0,0c-17.6,0-26.04-2.42-30.85-4.24
		c-2.84-1.07-8.75-3.31-12.71-11.96c-5.1-11.16-5.23-28.89-0.38-52.71c7.75-38.04,26.54-52.18,69.33-52.18
		c0.54,0,1.19-0.01,1.93-0.02C79.45,33.51,80.61,33.49,81.91,33.49z"/>
</g>
<g class="st24">
	<path class="st25" d="M67.93,90.27c0,0-9.26,36.29,9.24,36.54c11.29,0.16,31.38-20.22,31.38-20.22L67.93,90.27z"/>
</g>
<g>
	<path class="st26" d="M72.93,85.44c2.31-2.85,23.43,4.82,35.95,16.42c2.65,2.46-25.18,19.58-28.69,19.71
		C72.13,121.85,61.76,99.24,72.93,85.44z"/>
</g>
<g>
	<path class="st27" d="M69.34,108.84c0,0,10.56,3.16,34.74-2.68c3.21-0.78,2.21-3.03,2.21-3.03s-14.98,3.01-30.12,0.61
		c-1.99-0.31-7.85-0.85-7.85-0.85L69.34,108.84z"/>
</g>
<g>
	<path class="st20" d="M80.18,123.46L80.18,123.46l0.22,0c3.75-0.13,28.54-15.03,30.44-20.08c0.39-1.05,0.18-2.09-0.57-2.79
		C99.32,90.42,81.67,83.07,75.11,83.07c-1.64,0-2.77,0.42-3.47,1.28c-7.59,9.37-5.88,21.84-2.12,29.67
		C72.37,119.93,76.35,123.46,80.18,123.46z M107.07,102.62c-3.06,3.98-23.59,16.77-26.84,17.18l-0.05,0c-2.27,0-5.22-2.96-7.34-7.36
		c-3.54-7.36-4.42-18.12,1.54-25.65c0.11-0.03,0.33-0.07,0.73-0.07C80.1,86.73,96.18,92.9,107.07,102.62z"/>
</g>
<g>
	<path class="st20" d="M85.46,106.04c5.84,0,13.6-0.43,23.88-1.57c1.01-0.11,1.74-1.02,1.62-2.02c-0.11-1-1.02-1.73-2.03-1.61
		c-18.82,2.09-28.46,1.69-33.23,1c-3.08-0.45-4.76-1.17-4.76-1.18c-0.51-0.88-1.63-1.18-2.51-0.68c-0.88,0.5-1.18,1.62-0.68,2.5
		C68.35,103.5,71.27,106.04,85.46,106.04z"/>
</g>
<g>
	<path class="st20" d="M49.52,34.1c0.46,0,0.92-0.17,1.28-0.51c0.73-0.7,0.75-1.86,0.04-2.59c-3-3.08-4.34-7.28-3.69-11.51
		c0.55-3.59,2.47-6.76,5.41-8.91c2.94-2.15,6.55-3.04,10.16-2.49c7.45,1.13,12.59,8.08,11.46,15.49c-0.15,1,0.54,1.93,1.54,2.08
		c1,0.16,1.94-0.53,2.09-1.53c1.44-9.41-5.08-18.23-14.54-19.66c-4.58-0.69-9.16,0.43-12.89,3.16c-3.73,2.73-6.17,6.75-6.87,11.3
		c-0.82,5.37,0.89,10.7,4.69,14.6C48.56,33.91,49.04,34.1,49.52,34.1z"/>
</g>
<g>
	<path class="st20" d="M96.82,27.47c0.6,0,1.19-0.29,1.55-0.84c2.97-4.57,3.6-10.12,1.75-15.23c-3.25-8.95-13.21-13.6-22.2-10.37
		C74.08,2.4,70.84,5.09,68.8,8.6c-0.51,0.87-0.21,1.99,0.67,2.5c0.88,0.51,2,0.21,2.51-0.67c1.61-2.77,4.16-4.89,7.18-5.97
		c7.09-2.54,14.94,1.12,17.5,8.17c1.46,4.03,0.96,8.4-1.38,12c-0.55,0.85-0.31,1.98,0.55,2.53C96.14,27.37,96.48,27.47,96.82,27.47z
		"/>
</g>
<g>
	<path class="st20" d="M117.77,39.04c0.6,0,1.19-0.29,1.55-0.84c2.96-4.57,3.6-10.12,1.75-15.23c-3.25-8.95-13.21-13.61-22.2-10.37
		c-0.95,0.34-1.45,1.39-1.1,2.34c0.34,0.95,1.4,1.44,2.35,1.1c7.09-2.54,14.94,1.12,17.5,8.17c1.46,4.03,0.96,8.41-1.38,12.01
		c-0.55,0.85-0.31,1.98,0.55,2.53C117.09,38.95,117.43,39.04,117.77,39.04z"/>
</g>
<g>
	<path class="st20" d="M124.36,51.5c0.47,0,0.93-0.18,1.29-0.53c0.72-0.71,0.73-1.87,0.02-2.59c-6.87-6.95-16.02-5.73-16.41-5.68
		c-1,0.14-1.7,1.07-1.56,2.07c0.14,1,1.07,1.69,2.07,1.55l0,0c0.08-0.01,7.74-0.98,13.27,4.62C123.41,51.31,123.88,51.5,124.36,51.5
		z"/>
</g>
<g>
	<path class="st20" d="M31.62,50.79c0.47,0,0.95-0.18,1.31-0.55c5.54-5.6,13.2-4.63,13.27-4.62c1,0.14,1.93-0.56,2.07-1.56
		c0.14-1-0.55-1.92-1.55-2.06c-0.39-0.06-9.54-1.27-16.41,5.67c-0.71,0.72-0.7,1.88,0.02,2.59C30.69,50.61,31.16,50.79,31.62,50.79z
		"/>
</g>
<g>
	<path class="st28" d="M101.24,100.4c0,0-11.97-9.41-23.75-11.69c-2.73-0.53-2.39,3.68-2.39,3.68S86.45,93.76,101.24,100.4z"/>
</g>
<g>
	<path class="st25" d="M31.12,107.62c-0.27,1.77-1.93,2.98-3.7,2.71c-1.77-0.27-2.99-1.92-2.72-3.68c0.27-1.77,1.93-2.98,3.7-2.71
		C30.17,104.21,31.39,105.85,31.12,107.62z"/>
</g>
<g>
	<path class="st25" d="M41.79,103.57c-0.15,0.95-1.04,1.61-2,1.46c-0.96-0.14-1.61-1.03-1.47-1.99c0.14-0.95,1.04-1.61,2-1.46
		C41.28,101.73,41.94,102.62,41.79,103.57z"/>
</g>
<g>
	<path class="st25" d="M23.13,102.16c-0.09,0.56-0.61,0.95-1.18,0.86c-0.56-0.09-0.95-0.61-0.87-1.17c0.09-0.56,0.61-0.95,1.18-0.86
		C22.82,101.07,23.21,101.6,23.13,102.16z"/>
</g>
<g>
	<path class="st25" d="M36.47,115.19c-0.14,0.92-1.01,1.55-1.93,1.41c-0.92-0.14-1.56-1-1.42-1.92c0.14-0.92,1.01-1.55,1.93-1.41
		C35.98,113.41,36.61,114.27,36.47,115.19z"/>
</g>
<g>
	<path class="st25" d="M44.46,111.58c-0.16,1.04-1.14,1.76-2.19,1.6c-1.05-0.16-1.77-1.13-1.61-2.18s1.14-1.76,2.19-1.6
		C43.9,109.55,44.62,110.53,44.46,111.58z"/>
</g>
<g>
	<path class="st25" d="M27.76,115.33c-0.12,0.79-0.86,1.33-1.65,1.21c-0.79-0.12-1.33-0.86-1.22-1.64c0.12-0.79,0.86-1.33,1.65-1.21
		C27.34,113.81,27.89,114.54,27.76,115.33z"/>
</g>
<g>
	<path class="st25" d="M127.13,102.81c-0.13,0.81-0.89,1.37-1.7,1.25c-0.82-0.12-1.38-0.88-1.25-1.69c0.12-0.81,0.89-1.37,1.7-1.24
		C126.69,101.24,127.25,102,127.13,102.81z"/>
</g>
<g>
	<path class="st25" d="M132.25,99.66c-0.13,0.81-0.89,1.37-1.7,1.24c-0.81-0.12-1.37-0.88-1.25-1.69c0.12-0.81,0.89-1.37,1.7-1.25
		C131.82,98.09,132.38,98.84,132.25,99.66z"/>
</g>
<g>
	<path class="st25" d="M134.7,106.49c-0.08,0.55-0.61,0.94-1.16,0.85c-0.56-0.08-0.94-0.6-0.85-1.16c0.08-0.56,0.61-0.94,1.16-0.85
		C134.4,105.41,134.78,105.93,134.7,106.49z"/>
</g>
<g>
	<path class="st25" d="M128.51,109.44c-0.12,0.78-0.85,1.32-1.64,1.2c-0.79-0.12-1.33-0.85-1.21-1.63c0.12-0.78,0.85-1.32,1.64-1.2
		C128.09,107.93,128.63,108.66,128.51,109.44z"/>
</g>
<g>
	<path class="st25" d="M140.06,99.51c-0.11,0.72-0.78,1.21-1.51,1.1c-0.72-0.11-1.22-0.78-1.11-1.5c0.11-0.72,0.79-1.21,1.51-1.1
		C139.68,98.12,140.17,98.79,140.06,99.51z"/>
</g>
<g>
	<path class="st25" d="M140.83,107.37c-0.08,0.53-0.58,0.89-1.11,0.81c-0.53-0.08-0.9-0.58-0.82-1.11c0.08-0.53,0.58-0.89,1.11-0.81
		C140.55,106.35,140.92,106.84,140.83,107.37z"/>
</g>
<g>
	<path class="st25" d="M135.58,111.32c-0.07,0.44-0.48,0.74-0.92,0.67c-0.44-0.07-0.74-0.47-0.67-0.91
		c0.07-0.44,0.48-0.74,0.92-0.67C135.35,110.47,135.65,110.88,135.58,111.32z"/>
</g>
<g>
	<path class="st25" d="M19.63,108.02c-0.09,0.61-0.67,1.03-1.28,0.94c-0.61-0.09-1.04-0.66-0.94-1.28c0.09-0.61,0.67-1.03,1.28-0.94
		C19.3,106.84,19.72,107.41,19.63,108.02z"/>
</g>
<g>
	<path class="st29" d="M56.38,11.52c0,0,6.28-3.1,11.47,1.73c4.11,3.83,3.3,8.82,2.15,10.27C68.85,24.97,71.38,14.49,56.38,11.52z"
		/>
</g>
<g>
	<path class="st29" d="M79.36,6.68c0,0,6.28-3.1,11.47,1.74c4.11,3.83,3.3,8.82,2.15,10.27C91.82,20.12,94.36,9.64,79.36,6.68z"/>
</g>
<g>
	<path class="st29" d="M103.14,17.25c0,0,5.86-1.39,10.29,3.38c3.52,3.78,2.7,8.82,1.66,10.3
		C114.06,32.41,116.19,19.93,103.14,17.25z"/>
</g>
<g>
	<path class="st23" d="M95.44,74.93c0,7.21,5.87,13.05,13.11,13.05c7.24,0,13.11-5.84,13.11-13.05c0-7.21-5.87-13.05-13.11-13.05
		C101.31,61.88,95.44,67.72,95.44,74.93z"/>
	<path class="st20" d="M108.56,89.81c8.24,0,14.95-6.68,14.95-14.88c0-8.2-6.71-14.88-14.95-14.88c-8.24,0-14.95,6.67-14.95,14.88
		C93.61,83.14,100.31,89.81,108.56,89.81z M108.56,63.71c6.22,0,11.28,5.03,11.28,11.22c0,6.19-5.06,11.22-11.28,11.22
		c-6.22,0-11.28-5.03-11.28-11.22C97.28,68.74,102.34,63.71,108.56,63.71z"/>
</g>
<g>
	<path class="st30" d="M101.43,76.66c0,4.29,3.5,7.77,7.81,7.77c4.31,0,7.81-3.48,7.81-7.77c0-4.29-3.5-7.77-7.81-7.77
		C104.93,68.89,101.43,72.37,101.43,76.66z"/>
</g>
<g>
	<path class="st23" d="M106.94,75.29c0,2.27,1.85,4.11,4.13,4.11c2.28,0,4.14-1.84,4.14-4.11c0-2.27-1.85-4.11-4.14-4.11
		C108.79,71.17,106.94,73.02,106.94,75.29z"/>
</g>
<g>
	<path class="st23" d="M43.51,70.54c0,7.67,6.25,13.89,13.96,13.89c7.71,0,13.96-6.22,13.96-13.89c0-7.67-6.25-13.89-13.96-13.89
		C49.76,56.66,43.51,62.87,43.51,70.54z"/>
	<path class="st20" d="M57.47,86.26c8.71,0,15.79-7.05,15.79-15.72c0-8.67-7.08-15.72-15.79-15.72c-8.71,0-15.8,7.05-15.8,15.72
		C41.67,79.21,48.76,86.26,57.47,86.26z M57.47,58.48c6.68,0,12.12,5.41,12.12,12.06c0,6.65-5.44,12.06-12.12,12.06
		c-6.68,0-12.12-5.41-12.12-12.06C45.35,63.89,50.78,58.48,57.47,58.48z"/>
</g>
<g>
	<path class="st30" d="M49.88,72.38c0,4.57,3.72,8.27,8.31,8.27c4.59,0,8.31-3.71,8.31-8.27c0-4.57-3.72-8.27-8.31-8.27
		C53.6,64.11,49.88,67.82,49.88,72.38z"/>
</g>
<g>
	<path class="st23" d="M56.66,71.18c0,2.28,1.85,4.12,4.14,4.12c2.29,0,4.14-1.84,4.14-4.12c0-2.28-1.86-4.12-4.14-4.12
		C58.52,67.06,56.66,68.9,56.66,71.18z"/>
</g>
</svg>
